<?xml version="1.0" encoding="UTF-8" standalone="no"?>
<!-- Created with Inkscape (http://www.inkscape.org/) -->

<svg
   width="2000"
   height="500"
   viewBox="0 0 529.16668 132.29167"
   version="1.1"
   id="svg5"
   inkscape:version="1.2.1 (9c6d41e410, 2022-07-14)"
   sodipodi:docname="crab.svg"
   inkscape:export-filename="crab.png"
   inkscape:export-xdpi="96"
   inkscape:export-ydpi="96"
   xmlns:inkscape="http://www.inkscape.org/namespaces/inkscape"
   xmlns:sodipodi="http://sodipodi.sourceforge.net/DTD/sodipodi-0.dtd"
   xmlns="http://www.w3.org/2000/svg"
   xmlns:svg="http://www.w3.org/2000/svg">
  <sodipodi:namedview
     id="namedview7"
     pagecolor="#ffffff"
     bordercolor="#000000"
     borderopacity="0.25"
     inkscape:showpageshadow="2"
     inkscape:pageopacity="0.0"
     inkscape:pagecheckerboard="0"
     inkscape:deskcolor="#d1d1d1"
     inkscape:document-units="px"
     showgrid="false"
     inkscape:zoom="2.5360187"
     inkscape:cx="200.51114"
     inkscape:cy="179.02076"
     inkscape:window-width="1908"
     inkscape:window-height="1041"
     inkscape:window-x="5"
     inkscape:window-y="32"
     inkscape:window-maximized="1"
     inkscape:current-layer="g2986" />
  <defs
     id="defs2" />
  <g
     inkscape:label="Layer 1"
     inkscape:groupmode="layer"
     id="layer1"
     transform="matrix(2,0,0,2,26.458334,26.458333)">
    <g
       id="g781"
       inkscape:label="crab"
       transform="matrix(0.07890006,0,0,0.14425959,-14.256379,-28.54094)">
      <path
         style="fill:#800000;stroke-width:0.264583"
         d="m 130.86927,166.8956 c 0,0 12.5545,-11.94009 19.29433,-8.32762 6.73984,3.61247 17.8211,28.4067 17.8211,28.4067 0,0 -18.02376,-21.48673 -21.0546,-21.68005 -3.03083,-0.19333 -18.57611,7.47958 -18.57611,7.47958 z"
         id="path879"
         sodipodi:nodetypes="cscscc" />
      <path
         style="fill:#800000;stroke-width:0.264583"
         d="m 120.02522,166.26599 c 0,0 12.5545,-11.94009 19.29433,-8.32762 6.73984,3.61247 17.8211,28.4067 17.8211,28.4067 0,0 -18.02376,-21.48673 -21.0546,-21.68005 -3.03083,-0.19333 -18.57611,7.47958 -18.57611,7.47958 z"
         id="path881"
         sodipodi:nodetypes="cscscc" />
      <path
         style="fill:#800000;stroke-width:0.264583"
         d="m 143.57365,169.59412 c 0,0 12.5545,-11.94009 19.29433,-8.32762 6.73984,3.61247 17.8211,28.4067 17.8211,28.4067 0,0 -18.02376,-21.48673 -21.0546,-21.68005 -3.03083,-0.19333 -18.57611,7.47958 -18.57611,7.47958 z"
         id="path745"
         sodipodi:nodetypes="cscscc" />
      <ellipse
         style="fill:#d40000;stroke-width:0.264583"
         id="path338"
         cx="102.87492"
         cy="161.66394"
         rx="56.582577"
         ry="32.927471" />
      <path
         id="path340"
         style="fill:#d40000;stroke-width:0.228571"
         d="m 156.3066,106.14042 a 12.952058,17.354866 0 0 0 -6.63009,15.14326 12.952058,17.354866 0 0 0 12.95218,17.35449 12.952058,17.354866 0 0 0 12.95167,-17.35449 12.952058,17.354866 0 0 0 -5.96915,-14.61616 l -8.94725,15.72823 z" />
      <path
         id="path507"
         style="fill:#d40000;stroke-width:0.228571"
         d="m 29.58586,114.36509 a 12.952058,17.354866 0 0 0 -6.63009,15.14327 12.952058,17.354866 0 0 0 12.95218,17.35449 12.952058,17.354866 0 0 0 12.95167,-17.35449 12.952058,17.354866 0 0 0 -5.96915,-14.61617 l -8.94725,15.72824 z" />
      <g
         id="g619"
         transform="translate(54.08371,80.614701)">
        <circle
           style="fill:#000000;stroke-width:0.264583"
           id="path561"
           cx="32.795052"
           cy="50.937527"
           r="7.0839334" />
        <circle
           style="fill:#f9f9f9;stroke-width:0.264583"
           id="path615"
           cx="33.364563"
           cy="51.646866"
           r="4.5980244" />
      </g>
      <g
         id="g625"
         transform="translate(81.2481,79.141011)">
        <circle
           style="fill:#000000;stroke-width:0.264583"
           id="circle621"
           cx="32.795052"
           cy="50.937527"
           r="7.0839334" />
        <circle
           style="fill:#f9f9f9;stroke-width:0.264583"
           id="circle623"
           cx="33.364563"
           cy="51.646866"
           r="4.5980244" />
      </g>
      <path
         style="fill:#800000;stroke-width:0.264583"
         d="m 47.70457,167.62871 c 0,0 -12.624321,-18.78252 -19.364158,-15.17005 -6.739838,3.61247 -15.321256,28.56738 -15.321256,28.56738 0,0 12.697183,-19.29386 15.728019,-19.48718 3.030836,-0.19333 21.472667,11.96846 21.472667,11.96846 z"
         id="path735" />
      <path
         style="fill:#800000;stroke-width:0.264583"
         d="m 60.672285,176.17376 c 0,0 -12.624321,-18.78252 -19.364158,-15.17005 -6.739838,3.61247 -15.321256,28.56738 -15.321256,28.56738 0,0 12.697183,-19.29386 15.728019,-19.48718 3.030836,-0.19333 21.472667,11.96846 21.472667,11.96846 z"
         id="path737" />
      <path
         style="fill:#800000;stroke-width:0.264583"
         d="m 73.275249,184.44699 c 0,0 -12.624321,-18.78252 -19.364158,-15.17005 -6.739838,3.61247 -15.321256,28.56738 -15.321256,28.56738 0,0 12.697183,-19.29386 15.728019,-19.48718 3.030836,-0.19333 21.472667,11.96846 21.472667,11.96846 z"
         id="path739" />
    </g>
    <g
       id="g1096"
       inkscape:label="crab"
       transform="matrix(0.07890006,0,0,0.14425959,-1.0272122,-28.54094)">
      <path
         style="fill:#800000;stroke-width:0.264583"
         d="m 130.86927,166.8956 c 0,0 12.5545,-11.94009 19.29433,-8.32762 6.73984,3.61247 17.8211,28.4067 17.8211,28.4067 0,0 -18.02376,-21.48673 -21.0546,-21.68005 -3.03083,-0.19333 -18.57611,7.47958 -18.57611,7.47958 z"
         id="path1066"
         sodipodi:nodetypes="cscscc" />
      <path
         style="fill:#800000;stroke-width:0.264583"
         d="m 120.02522,166.26599 c 0,0 12.5545,-11.94009 19.29433,-8.32762 6.73984,3.61247 17.8211,28.4067 17.8211,28.4067 0,0 -18.02376,-21.48673 -21.0546,-21.68005 -3.03083,-0.19333 -18.57611,7.47958 -18.57611,7.47958 z"
         id="path1068"
         sodipodi:nodetypes="cscscc" />
      <path
         style="fill:#800000;stroke-width:0.264583"
         d="m 143.57365,169.59412 c 0,0 12.5545,-11.94009 19.29433,-8.32762 6.73984,3.61247 17.8211,28.4067 17.8211,28.4067 0,0 -18.02376,-21.48673 -21.0546,-21.68005 -3.03083,-0.19333 -18.57611,7.47958 -18.57611,7.47958 z"
         id="path1070"
         sodipodi:nodetypes="cscscc" />
      <ellipse
         style="fill:#d40000;stroke-width:0.264583"
         id="ellipse1072"
         cx="102.87492"
         cy="161.66394"
         rx="56.582577"
         ry="32.927471" />
      <path
         id="path1074"
         style="fill:#d40000;stroke-width:0.228571"
         d="m 156.3066,107.97449 a 12.952058,17.354866 0 0 0 -6.63009,15.14326 12.952058,17.354866 0 0 0 12.95218,17.35449 12.952058,17.354866 0 0 0 12.95167,-17.35449 12.952058,17.354866 0 0 0 -5.96915,-14.61616 l -8.94725,15.72823 z" />
      <path
         id="path1076"
         style="fill:#d40000;stroke-width:0.228571"
         d="m 29.58586,114.36509 a 12.952058,17.354866 0 0 0 -6.63009,15.14327 12.952058,17.354866 0 0 0 12.95218,17.35449 12.952058,17.354866 0 0 0 12.95167,-17.35449 12.952058,17.354866 0 0 0 -5.96915,-14.61617 l -8.94725,15.72824 z" />
      <g
         id="g1082"
         transform="translate(54.08371,80.614701)">
        <circle
           style="fill:#000000;stroke-width:0.264583"
           id="circle1078"
           cx="32.795052"
           cy="50.937527"
           r="7.0839334" />
        <circle
           style="fill:#f9f9f9;stroke-width:0.264583"
           id="circle1080"
           cx="33.364563"
           cy="51.646866"
           r="4.5980244" />
      </g>
      <g
         id="g1088"
         transform="translate(81.2481,79.141011)">
        <circle
           style="fill:#000000;stroke-width:0.264583"
           id="circle1084"
           cx="32.795052"
           cy="50.937527"
           r="7.0839334" />
        <circle
           style="fill:#f9f9f9;stroke-width:0.264583"
           id="circle1086"
           cx="33.364563"
           cy="51.646866"
           r="4.5980244" />
      </g>
      <path
         style="fill:#800000;stroke-width:0.264583"
         d="m 47.70457,167.62871 c 0,0 -12.624321,-18.78252 -19.364158,-15.17005 -6.739838,3.61247 -15.321256,28.56738 -15.321256,28.56738 0,0 12.697183,-19.29386 15.728019,-19.48718 3.030836,-0.19333 21.472667,11.96846 21.472667,11.96846 z"
         id="path1090" />
      <path
         style="fill:#800000;stroke-width:0.264583"
         d="m 60.672285,176.17376 c 0,0 -12.624321,-18.78252 -19.364158,-15.17005 -6.739838,3.61247 -15.321256,28.56738 -15.321256,28.56738 0,0 12.697183,-19.29386 15.728019,-19.48718 3.030836,-0.19333 21.472667,11.96846 21.472667,11.96846 z"
         id="path1092" />
      <path
         style="fill:#800000;stroke-width:0.264583"
         d="m 73.275249,184.44699 c 0,0 -12.624321,-18.78252 -19.364158,-15.17005 -6.739838,3.61247 -15.321256,28.56738 -15.321256,28.56738 0,0 12.697183,-19.29386 15.728019,-19.48718 3.030836,-0.19333 21.472667,11.96846 21.472667,11.96846 z"
         id="path1094" />
    </g>
    <g
       id="g1128"
       inkscape:label="crab"
       transform="matrix(0.07890006,0,0,0.14425959,12.201955,-28.54094)">
      <path
         style="fill:#800000;stroke-width:0.264583"
         d="m 130.86927,166.8956 c 0,0 12.5545,-11.94009 19.29433,-8.32762 6.73984,3.61247 17.8211,28.4067 17.8211,28.4067 0,0 -18.02376,-21.48673 -21.0546,-21.68005 -3.03083,-0.19333 -18.57611,7.47958 -18.57611,7.47958 z"
         id="path1098"
         sodipodi:nodetypes="cscscc" />
      <path
         style="fill:#800000;stroke-width:0.264583"
         d="m 120.02522,166.26599 c 0,0 12.5545,-11.94009 19.29433,-8.32762 6.73984,3.61247 17.8211,28.4067 17.8211,28.4067 0,0 -18.02376,-21.48673 -21.0546,-21.68005 -3.03083,-0.19333 -18.57611,7.47958 -18.57611,7.47958 z"
         id="path1100"
         sodipodi:nodetypes="cscscc" />
      <path
         style="fill:#800000;stroke-width:0.264583"
         d="m 143.57365,169.59412 c 0,0 12.5545,-11.94009 19.29433,-8.32762 6.73984,3.61247 17.8211,28.4067 17.8211,28.4067 0,0 -18.02376,-21.48673 -21.0546,-21.68005 -3.03083,-0.19333 -18.57611,7.47958 -18.57611,7.47958 z"
         id="path1102"
         sodipodi:nodetypes="cscscc" />
      <ellipse
         style="fill:#d40000;stroke-width:0.264583"
         id="ellipse1104"
         cx="102.87492"
         cy="161.66394"
         rx="56.582577"
         ry="32.927471" />
      <path
         id="path1106"
         style="fill:#d40000;stroke-width:0.228571"
         d="m 156.3066,109.80857 a 12.952058,17.354866 0 0 0 -6.63009,15.14326 12.952058,17.354866 0 0 0 12.95218,17.35449 12.952058,17.354866 0 0 0 12.95167,-17.35449 12.952058,17.354866 0 0 0 -5.96915,-14.61616 l -8.94725,15.72823 z" />
      <path
         id="path1108"
         style="fill:#d40000;stroke-width:0.228571"
         d="m 29.58586,114.36509 a 12.952058,17.354866 0 0 0 -6.63009,15.14327 12.952058,17.354866 0 0 0 12.95218,17.35449 12.952058,17.354866 0 0 0 12.95167,-17.35449 12.952058,17.354866 0 0 0 -5.96915,-14.61617 l -8.94725,15.72824 z" />
      <g
         id="g1114"
         transform="translate(54.08371,80.614701)">
        <circle
           style="fill:#000000;stroke-width:0.264583"
           id="circle1110"
           cx="32.795052"
           cy="50.937527"
           r="7.0839334" />
        <circle
           style="fill:#f9f9f9;stroke-width:0.264583"
           id="circle1112"
           cx="33.364563"
           cy="51.646866"
           r="4.5980244" />
      </g>
      <g
         id="g1120"
         transform="translate(81.2481,79.141011)">
        <circle
           style="fill:#000000;stroke-width:0.264583"
           id="circle1116"
           cx="32.795052"
           cy="50.937527"
           r="7.0839334" />
        <circle
           style="fill:#f9f9f9;stroke-width:0.264583"
           id="circle1118"
           cx="33.364563"
           cy="51.646866"
           r="4.5980244" />
      </g>
      <path
         style="fill:#800000;stroke-width:0.264583"
         d="m 47.70457,167.62871 c 0,0 -12.624321,-18.78252 -19.364158,-15.17005 -6.739838,3.61247 -15.321256,28.56738 -15.321256,28.56738 0,0 12.697183,-19.29386 15.728019,-19.48718 3.030836,-0.19333 21.472667,11.96846 21.472667,11.96846 z"
         id="path1122" />
      <path
         style="fill:#800000;stroke-width:0.264583"
         d="m 60.672285,176.17376 c 0,0 -12.624321,-18.78252 -19.364158,-15.17005 -6.739838,3.61247 -15.321256,28.56738 -15.321256,28.56738 0,0 12.697183,-19.29386 15.728019,-19.48718 3.030836,-0.19333 21.472667,11.96846 21.472667,11.96846 z"
         id="path1124" />
      <path
         style="fill:#800000;stroke-width:0.264583"
         d="m 73.275249,184.44699 c 0,0 -12.624321,-18.78252 -19.364158,-15.17005 -6.739838,3.61247 -15.321256,28.56738 -15.321256,28.56738 0,0 12.697183,-19.29386 15.728019,-19.48718 3.030836,-0.19333 21.472667,11.96846 21.472667,11.96846 z"
         id="path1126" />
    </g>
    <g
       id="g1160"
       inkscape:label="crab"
       transform="matrix(0.07890006,0,0,0.14425959,25.431122,-28.54094)">
      <path
         style="fill:#800000;stroke-width:0.264583"
         d="m 130.86927,166.8956 c 0,0 12.5545,-11.94009 19.29433,-8.32762 6.73984,3.61247 17.8211,28.4067 17.8211,28.4067 0,0 -18.02376,-21.48673 -21.0546,-21.68005 -3.03083,-0.19333 -18.57611,7.47958 -18.57611,7.47958 z"
         id="path1130"
         sodipodi:nodetypes="cscscc" />
      <path
         style="fill:#800000;stroke-width:0.264583"
         d="m 120.02522,166.26599 c 0,0 12.5545,-11.94009 19.29433,-8.32762 6.73984,3.61247 17.8211,28.4067 17.8211,28.4067 0,0 -18.02376,-21.48673 -21.0546,-21.68005 -3.03083,-0.19333 -18.57611,7.47958 -18.57611,7.47958 z"
         id="path1132"
         sodipodi:nodetypes="cscscc" />
      <path
         style="fill:#800000;stroke-width:0.264583"
         d="m 143.57365,169.59412 c 0,0 12.5545,-11.94009 19.29433,-8.32762 6.73984,3.61247 17.8211,28.4067 17.8211,28.4067 0,0 -18.02376,-21.48673 -21.0546,-21.68005 -3.03083,-0.19333 -18.57611,7.47958 -18.57611,7.47958 z"
         id="path1134"
         sodipodi:nodetypes="cscscc" />
      <ellipse
         style="fill:#d40000;stroke-width:0.264583"
         id="ellipse1136"
         cx="102.87492"
         cy="161.66394"
         rx="56.582577"
         ry="32.927471" />
      <path
         id="path1138"
         style="fill:#d40000;stroke-width:0.228571"
         d="m 152.95354,111.64265 a 12.952058,17.354866 0 0 0 -6.63009,15.14326 12.952058,17.354866 0 0 0 12.95218,17.35449 12.952058,17.354866 0 0 0 12.95167,-17.35449 12.952058,17.354866 0 0 0 -5.96915,-14.61616 l -8.94725,15.72823 z" />
      <path
         id="path1140"
         style="fill:#d40000;stroke-width:0.228571"
         d="m 29.58586,114.36509 a 12.952058,17.354866 0 0 0 -6.63009,15.14327 12.952058,17.354866 0 0 0 12.95218,17.35449 12.952058,17.354866 0 0 0 12.95167,-17.35449 12.952058,17.354866 0 0 0 -5.96915,-14.61617 l -8.94725,15.72824 z" />
      <g
         id="g1146"
         transform="translate(54.08371,80.614701)">
        <circle
           style="fill:#000000;stroke-width:0.264583"
           id="circle1142"
           cx="32.795052"
           cy="50.937527"
           r="7.0839334" />
        <circle
           style="fill:#f9f9f9;stroke-width:0.264583"
           id="circle1144"
           cx="33.364563"
           cy="51.646866"
           r="4.5980244" />
      </g>
      <g
         id="g1152"
         transform="translate(81.2481,79.141011)">
        <circle
           style="fill:#000000;stroke-width:0.264583"
           id="circle1148"
           cx="32.795052"
           cy="50.937527"
           r="7.0839334" />
        <circle
           style="fill:#f9f9f9;stroke-width:0.264583"
           id="circle1150"
           cx="33.364563"
           cy="51.646866"
           r="4.5980244" />
      </g>
      <path
         style="fill:#800000;stroke-width:0.264583"
         d="m 47.70457,167.62871 c 0,0 -12.624321,-18.78252 -19.364158,-15.17005 -6.739838,3.61247 -15.321256,28.56738 -15.321256,28.56738 0,0 12.697183,-19.29386 15.728019,-19.48718 3.030836,-0.19333 21.472667,11.96846 21.472667,11.96846 z"
         id="path1154" />
      <path
         style="fill:#800000;stroke-width:0.264583"
         d="m 60.672285,176.17376 c 0,0 -12.624321,-18.78252 -19.364158,-15.17005 -6.739838,3.61247 -15.321256,28.56738 -15.321256,28.56738 0,0 12.697183,-19.29386 15.728019,-19.48718 3.030836,-0.19333 21.472667,11.96846 21.472667,11.96846 z"
         id="path1156" />
      <path
         style="fill:#800000;stroke-width:0.264583"
         d="m 73.275249,184.44699 c 0,0 -12.624321,-18.78252 -19.364158,-15.17005 -6.739838,3.61247 -15.321256,28.56738 -15.321256,28.56738 0,0 12.697183,-19.29386 15.728019,-19.48718 3.030836,-0.19333 21.472667,11.96846 21.472667,11.96846 z"
         id="path1158" />
    </g>
    <g
       id="g1192"
       inkscape:label="crab"
       transform="matrix(0.07890006,0,0,0.14425959,38.660289,-28.54094)">
      <path
         style="fill:#800000;stroke-width:0.264583"
         d="m 130.86927,166.8956 c 0,0 12.5545,-11.94009 19.29433,-8.32762 6.73984,3.61247 17.8211,28.4067 17.8211,28.4067 0,0 -18.02376,-21.48673 -21.0546,-21.68005 -3.03083,-0.19333 -18.57611,7.47958 -18.57611,7.47958 z"
         id="path1162"
         sodipodi:nodetypes="cscscc" />
      <path
         style="fill:#800000;stroke-width:0.264583"
         d="m 120.02522,166.26599 c 0,0 12.5545,-11.94009 19.29433,-8.32762 6.73984,3.61247 17.8211,28.4067 17.8211,28.4067 0,0 -18.02376,-21.48673 -21.0546,-21.68005 -3.03083,-0.19333 -18.57611,7.47958 -18.57611,7.47958 z"
         id="path1164"
         sodipodi:nodetypes="cscscc" />
      <path
         style="fill:#800000;stroke-width:0.264583"
         d="m 143.57365,169.59412 c 0,0 12.5545,-11.94009 19.29433,-8.32762 6.73984,3.61247 17.8211,28.4067 17.8211,28.4067 0,0 -18.02376,-21.48673 -21.0546,-21.68005 -3.03083,-0.19333 -18.57611,7.47958 -18.57611,7.47958 z"
         id="path1166"
         sodipodi:nodetypes="cscscc" />
      <ellipse
         style="fill:#d40000;stroke-width:0.264583"
         id="ellipse1168"
         cx="102.87492"
         cy="161.66394"
         rx="56.582577"
         ry="32.927471" />
      <path
         id="path1170"
         style="fill:#d40000;stroke-width:0.228571"
         d="m 156.70772,111.33831 a 12.558024,17.899411 22.137256 0 0 -10.03108,14.57286 12.558024,17.899411 22.137256 0 0 8.89415,18.10241 12.558024,17.899411 22.137256 0 0 16.80749,-16.33566 12.558024,17.899411 22.137256 0 0 -2.58998,-14.90919 l -12.46354,14.99521 z" />
      <path
         id="path1172"
         style="fill:#d40000;stroke-width:0.228571"
         d="m 29.58586,114.36509 a 12.952058,17.354866 0 0 0 -6.63009,15.14327 12.952058,17.354866 0 0 0 12.95218,17.35449 12.952058,17.354866 0 0 0 12.95167,-17.35449 12.952058,17.354866 0 0 0 -5.96915,-14.61617 l -8.94725,15.72824 z" />
      <g
         id="g1178"
         transform="translate(54.08371,80.614701)">
        <circle
           style="fill:#000000;stroke-width:0.264583"
           id="circle1174"
           cx="32.795052"
           cy="50.937527"
           r="7.0839334" />
        <circle
           style="fill:#f9f9f9;stroke-width:0.264583"
           id="circle1176"
           cx="33.364563"
           cy="51.646866"
           r="4.5980244" />
      </g>
      <g
         id="g1184"
         transform="translate(81.2481,79.141011)">
        <circle
           style="fill:#000000;stroke-width:0.264583"
           id="circle1180"
           cx="32.795052"
           cy="50.937527"
           r="7.0839334" />
        <path
           id="circle1182"
           style="fill:#f9f9f9;stroke-width:0.264583"
           d="m 37.962587,51.646866 c 0,2.539418 -1.888549,3.936848 -4.427967,3.936848 -2.539419,0 -4.768081,-1.39743 -4.768081,-3.936848 0,-2.539419 2.321279,-4.168409 4.860698,-4.168409 2.539419,0 4.33535,1.62899 4.33535,4.168409 z"
           sodipodi:nodetypes="sssss" />
      </g>
      <path
         style="fill:#800000;stroke-width:0.264583"
         d="m 47.70457,167.62871 c 0,0 -12.624321,-18.78252 -19.364158,-15.17005 -6.739838,3.61247 -15.321256,28.56738 -15.321256,28.56738 0,0 12.697183,-19.29386 15.728019,-19.48718 3.030836,-0.19333 21.472667,11.96846 21.472667,11.96846 z"
         id="path1186" />
      <path
         style="fill:#800000;stroke-width:0.264583"
         d="m 60.672285,176.17376 c 0,0 -12.624321,-18.78252 -19.364158,-15.17005 -6.739838,3.61247 -15.321256,28.56738 -15.321256,28.56738 0,0 12.697183,-19.29386 15.728019,-19.48718 3.030836,-0.19333 21.472667,11.96846 21.472667,11.96846 z"
         id="path1188" />
      <path
         style="fill:#800000;stroke-width:0.264583"
         d="m 73.275249,184.44699 c 0,0 -12.624321,-18.78252 -19.364158,-15.17005 -6.739838,3.61247 -15.321256,28.56738 -15.321256,28.56738 0,0 12.697183,-19.29386 15.728019,-19.48718 3.030836,-0.19333 21.472667,11.96846 21.472667,11.96846 z"
         id="path1190" />
    </g>
    <g
       id="g1353"
       inkscape:label="crab"
       transform="matrix(0.07890006,0,0,0.14425959,51.889456,-28.54094)">
      <path
         style="fill:#800000;stroke-width:0.264583"
         d="m 130.86927,166.8956 c 0,0 12.5545,-11.94009 19.29433,-8.32762 6.73984,3.61247 17.8211,28.4067 17.8211,28.4067 0,0 -18.02376,-21.48673 -21.0546,-21.68005 -3.03083,-0.19333 -18.57611,7.47958 -18.57611,7.47958 z"
         id="path1323"
         sodipodi:nodetypes="cscscc" />
      <path
         style="fill:#800000;stroke-width:0.264583"
         d="m 120.02522,166.26599 c 0,0 12.5545,-11.94009 19.29433,-8.32762 6.73984,3.61247 17.8211,28.4067 17.8211,28.4067 0,0 -18.02376,-21.48673 -21.0546,-21.68005 -3.03083,-0.19333 -18.57611,7.47958 -18.57611,7.47958 z"
         id="path1325"
         sodipodi:nodetypes="cscscc" />
      <path
         style="fill:#800000;stroke-width:0.264583"
         d="m 143.57365,169.59412 c 0,0 12.5545,-11.94009 19.29433,-8.32762 6.73984,3.61247 17.8211,28.4067 17.8211,28.4067 0,0 -18.02376,-21.48673 -21.0546,-21.68005 -3.03083,-0.19333 -18.57611,7.47958 -18.57611,7.47958 z"
         id="path1327"
         sodipodi:nodetypes="cscscc" />
      <ellipse
         style="fill:#d40000;stroke-width:0.264583"
         id="ellipse1329"
         cx="102.87492"
         cy="161.66394"
         rx="56.582577"
         ry="32.927471" />
      <path
         id="path1331"
         style="fill:#d40000;stroke-width:0.228571"
         d="m 152.95354,111.64265 a 12.952058,17.354866 0 0 0 -6.63009,15.14326 12.952058,17.354866 0 0 0 12.95218,17.35449 12.952058,17.354866 0 0 0 12.95167,-17.35449 12.952058,17.354866 0 0 0 -5.96915,-14.61616 l -8.94725,15.72823 z" />
      <path
         id="path1333"
         style="fill:#d40000;stroke-width:0.228571"
         d="m 29.58586,114.36509 a 12.952058,17.354866 0 0 0 -6.63009,15.14327 12.952058,17.354866 0 0 0 12.95218,17.35449 12.952058,17.354866 0 0 0 12.95167,-17.35449 12.952058,17.354866 0 0 0 -5.96915,-14.61617 l -8.94725,15.72824 z" />
      <g
         id="g1339"
         transform="translate(54.08371,80.614701)">
        <circle
           style="fill:#000000;stroke-width:0.264583"
           id="circle1335"
           cx="32.795052"
           cy="50.937527"
           r="7.0839334" />
        <circle
           style="fill:#f9f9f9;stroke-width:0.264583"
           id="circle1337"
           cx="33.364563"
           cy="51.646866"
           r="4.5980244" />
      </g>
      <g
         id="g1359"
         transform="translate(81.246787,79.317998)">
        <circle
           style="fill:#000000;stroke-width:0.264583"
           id="circle1355"
           cx="32.795052"
           cy="50.937527"
           r="7.0839334" />
        <path
           id="path1357"
           style="fill:#f9f9f9;stroke-width:0.264583"
           d="m 37.962587,51.646866 c -0.07988,0.924511 -2.175211,2.146134 -4.110149,2.169451 -1.754803,0.02115 -5.010153,-0.75571 -5.085899,-2.169451 -0.08393,-1.566542 2.14234,-2.96189 4.681759,-2.96189 2.539419,0 4.635486,1.559128 4.514289,2.96189 z"
           sodipodi:nodetypes="sssss" />
      </g>
      <path
         style="fill:#800000;stroke-width:0.264583"
         d="m 47.70457,167.62871 c 0,0 -12.624321,-18.78252 -19.364158,-15.17005 -6.739838,3.61247 -15.321256,28.56738 -15.321256,28.56738 0,0 12.697183,-19.29386 15.728019,-19.48718 3.030836,-0.19333 21.472667,11.96846 21.472667,11.96846 z"
         id="path1347" />
      <path
         style="fill:#800000;stroke-width:0.264583"
         d="m 60.672285,176.17376 c 0,0 -12.624321,-18.78252 -19.364158,-15.17005 -6.739838,3.61247 -15.321256,28.56738 -15.321256,28.56738 0,0 12.697183,-19.29386 15.728019,-19.48718 3.030836,-0.19333 21.472667,11.96846 21.472667,11.96846 z"
         id="path1349" />
      <path
         style="fill:#800000;stroke-width:0.264583"
         d="m 73.275249,184.44699 c 0,0 -12.624321,-18.78252 -19.364158,-15.17005 -6.739838,3.61247 -15.321256,28.56738 -15.321256,28.56738 0,0 12.697183,-19.29386 15.728019,-19.48718 3.030836,-0.19333 21.472667,11.96846 21.472667,11.96846 z"
         id="path1351" />
    </g>
    <g
       id="g1397"
       inkscape:label="crab"
       transform="matrix(0.07890006,0,0,0.14425959,65.118623,-28.54094)">
      <path
         style="fill:#800000;stroke-width:0.264583"
         d="m 130.86927,166.8956 c 0,0 12.5545,-11.94009 19.29433,-8.32762 6.73984,3.61247 17.8211,28.4067 17.8211,28.4067 0,0 -18.02376,-21.48673 -21.0546,-21.68005 -3.03083,-0.19333 -18.57611,7.47958 -18.57611,7.47958 z"
         id="path1367"
         sodipodi:nodetypes="cscscc" />
      <path
         style="fill:#800000;stroke-width:0.264583"
         d="m 120.02522,166.26599 c 0,0 12.5545,-11.94009 19.29433,-8.32762 6.73984,3.61247 17.8211,28.4067 17.8211,28.4067 0,0 -18.02376,-21.48673 -21.0546,-21.68005 -3.03083,-0.19333 -18.57611,7.47958 -18.57611,7.47958 z"
         id="path1369"
         sodipodi:nodetypes="cscscc" />
      <path
         style="fill:#800000;stroke-width:0.264583"
         d="m 143.57365,169.59412 c 0,0 12.5545,-11.94009 19.29433,-8.32762 6.73984,3.61247 17.8211,28.4067 17.8211,28.4067 0,0 -18.02376,-21.48673 -21.0546,-21.68005 -3.03083,-0.19333 -18.57611,7.47958 -18.57611,7.47958 z"
         id="path1371"
         sodipodi:nodetypes="cscscc" />
      <ellipse
         style="fill:#d40000;stroke-width:0.264583"
         id="ellipse1373"
         cx="102.87492"
         cy="161.66394"
         rx="56.582577"
         ry="32.927471" />
      <path
         id="path1375"
         style="fill:#d40000;stroke-width:0.228571"
         d="m 156.3066,109.80857 a 12.952058,17.354866 0 0 0 -6.63009,15.14326 12.952058,17.354866 0 0 0 12.95218,17.35449 12.952058,17.354866 0 0 0 12.95167,-17.35449 12.952058,17.354866 0 0 0 -5.96915,-14.61616 l -8.94725,15.72823 z" />
      <path
         id="path1377"
         style="fill:#d40000;stroke-width:0.228571"
         d="m 29.58586,114.36509 a 12.952058,17.354866 0 0 0 -6.63009,15.14327 12.952058,17.354866 0 0 0 12.95218,17.35449 12.952058,17.354866 0 0 0 12.95167,-17.35449 12.952058,17.354866 0 0 0 -5.96915,-14.61617 l -8.94725,15.72824 z" />
      <g
         id="g1383"
         transform="translate(54.08371,80.614701)">
        <circle
           style="fill:#000000;stroke-width:0.264583"
           id="circle1379"
           cx="32.795052"
           cy="50.937527"
           r="7.0839334" />
        <circle
           style="fill:#f9f9f9;stroke-width:0.264583"
           id="circle1381"
           cx="33.364563"
           cy="51.646866"
           r="4.5980244" />
      </g>
      <g
         id="g1403"
         transform="translate(81.246787,79.317998)">
        <circle
           style="fill:#000000;stroke-width:0.264583"
           id="circle1399"
           cx="32.795052"
           cy="50.937527"
           r="7.0839334" />
      </g>
      <path
         style="fill:#800000;stroke-width:0.264583"
         d="m 47.70457,167.62871 c 0,0 -12.624321,-18.78252 -19.364158,-15.17005 -6.739838,3.61247 -15.321256,28.56738 -15.321256,28.56738 0,0 12.697183,-19.29386 15.728019,-19.48718 3.030836,-0.19333 21.472667,11.96846 21.472667,11.96846 z"
         id="path1391" />
      <path
         style="fill:#800000;stroke-width:0.264583"
         d="m 60.672285,176.17376 c 0,0 -12.624321,-18.78252 -19.364158,-15.17005 -6.739838,3.61247 -15.321256,28.56738 -15.321256,28.56738 0,0 12.697183,-19.29386 15.728019,-19.48718 3.030836,-0.19333 21.472667,11.96846 21.472667,11.96846 z"
         id="path1393" />
      <path
         style="fill:#800000;stroke-width:0.264583"
         d="m 73.275249,184.44699 c 0,0 -12.624321,-18.78252 -19.364158,-15.17005 -6.739838,3.61247 -15.321256,28.56738 -15.321256,28.56738 0,0 12.697183,-19.29386 15.728019,-19.48718 3.030836,-0.19333 21.472667,11.96846 21.472667,11.96846 z"
         id="path1395" />
    </g>
    <g
       id="g1438"
       inkscape:label="crab"
       transform="matrix(0.07890006,0,0,0.14425959,78.34779,-28.54094)">
      <path
         style="fill:#800000;stroke-width:0.264583"
         d="m 130.86927,166.8956 c 0,0 12.5545,-11.94009 19.29433,-8.32762 6.73984,3.61247 17.8211,28.4067 17.8211,28.4067 0,0 -18.02376,-21.48673 -21.0546,-21.68005 -3.03083,-0.19333 -18.57611,7.47958 -18.57611,7.47958 z"
         id="path1408"
         sodipodi:nodetypes="cscscc" />
      <path
         style="fill:#800000;stroke-width:0.264583"
         d="m 120.02522,166.26599 c 0,0 12.5545,-11.94009 19.29433,-8.32762 6.73984,3.61247 17.8211,28.4067 17.8211,28.4067 0,0 -18.02376,-21.48673 -21.0546,-21.68005 -3.03083,-0.19333 -18.57611,7.47958 -18.57611,7.47958 z"
         id="path1410"
         sodipodi:nodetypes="cscscc" />
      <path
         style="fill:#800000;stroke-width:0.264583"
         d="m 143.57365,169.59412 c 0,0 12.5545,-11.94009 19.29433,-8.32762 6.73984,3.61247 17.8211,28.4067 17.8211,28.4067 0,0 -18.02376,-21.48673 -21.0546,-21.68005 -3.03083,-0.19333 -18.57611,7.47958 -18.57611,7.47958 z"
         id="path1412"
         sodipodi:nodetypes="cscscc" />
      <ellipse
         style="fill:#d40000;stroke-width:0.264583"
         id="ellipse1414"
         cx="102.87492"
         cy="161.66394"
         rx="56.582577"
         ry="32.927471" />
      <path
         id="path1416"
         style="fill:#d40000;stroke-width:0.228571"
         d="m 152.95354,107.97449 a 12.952058,17.354866 0 0 0 -6.63009,15.14326 12.952058,17.354866 0 0 0 12.95218,17.35449 12.952058,17.354866 0 0 0 12.95167,-17.35449 12.952058,17.354866 0 0 0 -5.96915,-14.61616 l -8.94725,15.72823 z" />
      <path
         id="path1418"
         style="fill:#d40000;stroke-width:0.228571"
         d="m 29.58586,114.36509 a 12.952058,17.354866 0 0 0 -6.63009,15.14327 12.952058,17.354866 0 0 0 12.95218,17.35449 12.952058,17.354866 0 0 0 12.95167,-17.35449 12.952058,17.354866 0 0 0 -5.96915,-14.61617 l -8.94725,15.72824 z" />
      <g
         id="g1424"
         transform="translate(54.08371,80.614701)">
        <circle
           style="fill:#000000;stroke-width:0.264583"
           id="circle1420"
           cx="32.795052"
           cy="50.937527"
           r="7.0839334" />
        <circle
           style="fill:#f9f9f9;stroke-width:0.264583"
           id="circle1422"
           cx="33.364563"
           cy="51.646866"
           r="4.5980244" />
      </g>
      <g
         id="g1430"
         transform="translate(81.246787,79.317998)">
        <circle
           style="fill:#000000;stroke-width:0.264583"
           id="circle1426"
           cx="32.795052"
           cy="50.937527"
           r="7.0839334" />
        <path
           id="path1428"
           style="fill:#f9f9f9;stroke-width:0.264583"
           d="m 37.962587,51.646866 c -0.07988,0.924511 -2.175211,2.146134 -4.110149,2.169451 -1.754803,0.02115 -5.010153,-0.75571 -5.085899,-2.169451 -0.08393,-1.566542 2.14234,-2.96189 4.681759,-2.96189 2.539419,0 4.635486,1.559128 4.514289,2.96189 z"
           sodipodi:nodetypes="sssss" />
      </g>
      <path
         style="fill:#800000;stroke-width:0.264583"
         d="m 47.70457,167.62871 c 0,0 -12.624321,-18.78252 -19.364158,-15.17005 -6.739838,3.61247 -15.321256,28.56738 -15.321256,28.56738 0,0 12.697183,-19.29386 15.728019,-19.48718 3.030836,-0.19333 21.472667,11.96846 21.472667,11.96846 z"
         id="path1432" />
      <path
         style="fill:#800000;stroke-width:0.264583"
         d="m 60.672285,176.17376 c 0,0 -12.624321,-18.78252 -19.364158,-15.17005 -6.739838,3.61247 -15.321256,28.56738 -15.321256,28.56738 0,0 12.697183,-19.29386 15.728019,-19.48718 3.030836,-0.19333 21.472667,11.96846 21.472667,11.96846 z"
         id="path1434" />
      <path
         style="fill:#800000;stroke-width:0.264583"
         d="m 73.275249,184.44699 c 0,0 -12.624321,-18.78252 -19.364158,-15.17005 -6.739838,3.61247 -15.321256,28.56738 -15.321256,28.56738 0,0 12.697183,-19.29386 15.728019,-19.48718 3.030836,-0.19333 21.472667,11.96846 21.472667,11.96846 z"
         id="path1436" />
    </g>
    <g
       id="g1470"
       inkscape:label="crab"
       transform="matrix(0.07890006,0,0,0.14425959,91.576957,-28.54094)">
      <path
         style="fill:#800000;stroke-width:0.264583"
         d="m 130.86927,166.8956 c 0,0 12.5545,-11.94009 19.29433,-8.32762 6.73984,3.61247 17.8211,28.4067 17.8211,28.4067 0,0 -18.02376,-21.48673 -21.0546,-21.68005 -3.03083,-0.19333 -18.57611,7.47958 -18.57611,7.47958 z"
         id="path1440"
         sodipodi:nodetypes="cscscc" />
      <path
         style="fill:#800000;stroke-width:0.264583"
         d="m 120.02522,166.26599 c 0,0 12.5545,-11.94009 19.29433,-8.32762 6.73984,3.61247 17.8211,28.4067 17.8211,28.4067 0,0 -18.02376,-21.48673 -21.0546,-21.68005 -3.03083,-0.19333 -18.57611,7.47958 -18.57611,7.47958 z"
         id="path1442"
         sodipodi:nodetypes="cscscc" />
      <path
         style="fill:#800000;stroke-width:0.264583"
         d="m 143.57365,169.59412 c 0,0 12.5545,-11.94009 19.29433,-8.32762 6.73984,3.61247 17.8211,28.4067 17.8211,28.4067 0,0 -18.02376,-21.48673 -21.0546,-21.68005 -3.03083,-0.19333 -18.57611,7.47958 -18.57611,7.47958 z"
         id="path1444"
         sodipodi:nodetypes="cscscc" />
      <ellipse
         style="fill:#d40000;stroke-width:0.264583"
         id="ellipse1446"
         cx="102.87492"
         cy="161.66394"
         rx="56.582577"
         ry="32.927471" />
      <path
         id="path1448"
         style="fill:#d40000;stroke-width:0.228571"
         d="m 156.70772,107.97449 a 12.558024,17.899411 22.137256 0 0 -10.03108,14.57286 12.558024,17.899411 22.137256 0 0 8.89415,18.10241 12.558024,17.899411 22.137256 0 0 16.80749,-16.33566 12.558024,17.899411 22.137256 0 0 -2.58998,-14.90919 l -12.46354,14.99521 z" />
      <path
         id="path1450"
         style="fill:#d40000;stroke-width:0.228571"
         d="m 29.58586,114.36509 a 12.952058,17.354866 0 0 0 -6.63009,15.14327 12.952058,17.354866 0 0 0 12.95218,17.35449 12.952058,17.354866 0 0 0 12.95167,-17.35449 12.952058,17.354866 0 0 0 -5.96915,-14.61617 l -8.94725,15.72824 z" />
      <g
         id="g1456"
         transform="translate(54.08371,80.614701)">
        <circle
           style="fill:#000000;stroke-width:0.264583"
           id="circle1452"
           cx="32.795052"
           cy="50.937527"
           r="7.0839334" />
        <circle
           style="fill:#f9f9f9;stroke-width:0.264583"
           id="circle1454"
           cx="33.364563"
           cy="51.646866"
           r="4.5980244" />
      </g>
      <g
         id="g1462"
         transform="translate(81.2481,79.141011)">
        <circle
           style="fill:#000000;stroke-width:0.264583"
           id="circle1458"
           cx="32.795052"
           cy="50.937527"
           r="7.0839334" />
        <path
           id="path1460"
           style="fill:#f9f9f9;stroke-width:0.264583"
           d="m 37.962587,51.646866 c 0,2.539418 -1.888549,3.936848 -4.427967,3.936848 -2.539419,0 -4.768081,-1.39743 -4.768081,-3.936848 0,-2.539419 2.321279,-4.168409 4.860698,-4.168409 2.539419,0 4.33535,1.62899 4.33535,4.168409 z"
           sodipodi:nodetypes="sssss" />
      </g>
      <path
         style="fill:#800000;stroke-width:0.264583"
         d="m 47.70457,167.62871 c 0,0 -12.624321,-18.78252 -19.364158,-15.17005 -6.739838,3.61247 -15.321256,28.56738 -15.321256,28.56738 0,0 12.697183,-19.29386 15.728019,-19.48718 3.030836,-0.19333 21.472667,11.96846 21.472667,11.96846 z"
         id="path1464" />
      <path
         style="fill:#800000;stroke-width:0.264583"
         d="m 60.672285,176.17376 c 0,0 -12.624321,-18.78252 -19.364158,-15.17005 -6.739838,3.61247 -15.321256,28.56738 -15.321256,28.56738 0,0 12.697183,-19.29386 15.728019,-19.48718 3.030836,-0.19333 21.472667,11.96846 21.472667,11.96846 z"
         id="path1466" />
      <path
         style="fill:#800000;stroke-width:0.264583"
         d="m 73.275249,184.44699 c 0,0 -12.624321,-18.78252 -19.364158,-15.17005 -6.739838,3.61247 -15.321256,28.56738 -15.321256,28.56738 0,0 12.697183,-19.29386 15.728019,-19.48718 3.030836,-0.19333 21.472667,11.96846 21.472667,11.96846 z"
         id="path1468" />
    </g>
    <g
       id="g1649"
       inkscape:label="crab"
       transform="matrix(0.07890006,0,0,0.14425959,104.80612,-28.54094)">
      <path
         style="fill:#800000;stroke-width:0.264583"
         d="m 130.86927,166.8956 c 0,0 12.5545,-11.94009 19.29433,-8.32762 6.73984,3.61247 17.8211,28.4067 17.8211,28.4067 0,0 -18.02376,-21.48673 -21.0546,-21.68005 -3.03083,-0.19333 -18.57611,7.47958 -18.57611,7.47958 z"
         id="path1619"
         sodipodi:nodetypes="cscscc" />
      <path
         style="fill:#800000;stroke-width:0.264583"
         d="m 120.02522,166.26599 c 0,0 12.5545,-11.94009 19.29433,-8.32762 6.73984,3.61247 17.8211,28.4067 17.8211,28.4067 0,0 -18.02376,-21.48673 -21.0546,-21.68005 -3.03083,-0.19333 -18.57611,7.47958 -18.57611,7.47958 z"
         id="path1621"
         sodipodi:nodetypes="cscscc" />
      <path
         style="fill:#800000;stroke-width:0.264583"
         d="m 143.57365,169.59412 c 0,0 12.5545,-11.94009 19.29433,-8.32762 6.73984,3.61247 17.8211,28.4067 17.8211,28.4067 0,0 -18.02376,-21.48673 -21.0546,-21.68005 -3.03083,-0.19333 -18.57611,7.47958 -18.57611,7.47958 z"
         id="path1623"
         sodipodi:nodetypes="cscscc" />
      <ellipse
         style="fill:#d40000;stroke-width:0.264583"
         id="ellipse1625"
         cx="102.87492"
         cy="161.66394"
         rx="56.582577"
         ry="32.927471" />
      <path
         id="path1627"
         style="fill:#d40000;stroke-width:0.228571"
         d="m 156.3066,106.14042 a 12.952058,17.354866 0 0 0 -6.63009,15.14326 12.952058,17.354866 0 0 0 12.95218,17.35449 12.952058,17.354866 0 0 0 12.95167,-17.35449 12.952058,17.354866 0 0 0 -5.96915,-14.61616 l -8.94725,15.72823 z" />
      <path
         id="path1629"
         style="fill:#d40000;stroke-width:0.228571"
         d="m 29.58586,114.36509 a 12.952058,17.354866 0 0 0 -6.63009,15.14327 12.952058,17.354866 0 0 0 12.95218,17.35449 12.952058,17.354866 0 0 0 12.95167,-17.35449 12.952058,17.354866 0 0 0 -5.96915,-14.61617 l -8.94725,15.72824 z" />
      <g
         id="g1635"
         transform="translate(54.08371,80.614701)">
        <circle
           style="fill:#000000;stroke-width:0.264583"
           id="circle1631"
           cx="32.795052"
           cy="50.937527"
           r="7.0839334" />
        <circle
           style="fill:#f9f9f9;stroke-width:0.264583"
           id="circle1633"
           cx="33.364563"
           cy="51.646866"
           r="4.5980244" />
      </g>
      <g
         id="g1641"
         transform="translate(81.2481,79.141011)">
        <circle
           style="fill:#000000;stroke-width:0.264583"
           id="circle1637"
           cx="32.795052"
           cy="50.937527"
           r="7.0839334" />
        <circle
           style="fill:#f9f9f9;stroke-width:0.264583"
           id="circle1639"
           cx="33.364563"
           cy="51.646866"
           r="4.5980244" />
      </g>
      <path
         style="fill:#800000;stroke-width:0.264583"
         d="m 47.70457,167.62871 c 0,0 -12.624321,-18.78252 -19.364158,-15.17005 -6.739838,3.61247 -15.321256,28.56738 -15.321256,28.56738 0,0 12.697183,-19.29386 15.728019,-19.48718 3.030836,-0.19333 21.472667,11.96846 21.472667,11.96846 z"
         id="path1643" />
      <path
         style="fill:#800000;stroke-width:0.264583"
         d="m 60.672285,176.17376 c 0,0 -12.624321,-18.78252 -19.364158,-15.17005 -6.739838,3.61247 -15.321256,28.56738 -15.321256,28.56738 0,0 12.697183,-19.29386 15.728019,-19.48718 3.030836,-0.19333 21.472667,11.96846 21.472667,11.96846 z"
         id="path1645" />
      <path
         style="fill:#800000;stroke-width:0.264583"
         d="m 73.275249,184.44699 c 0,0 -12.624321,-18.78252 -19.364158,-15.17005 -6.739838,3.61247 -15.321256,28.56738 -15.321256,28.56738 0,0 12.697183,-19.29386 15.728019,-19.48718 3.030836,-0.19333 21.472667,11.96846 21.472667,11.96846 z"
         id="path1647" />
    </g>
    <g
       id="g1681"
       inkscape:label="crab"
       transform="matrix(0.07890006,0,0,0.14425959,118.03529,-28.54094)">
      <path
         style="fill:#800000;stroke-width:0.264583"
         d="m 130.86927,166.8956 c 0,0 12.5545,-11.94009 19.29433,-8.32762 6.73984,3.61247 17.8211,28.4067 17.8211,28.4067 0,0 -18.02376,-21.48673 -21.0546,-21.68005 -3.03083,-0.19333 -18.57611,7.47958 -18.57611,7.47958 z"
         id="path1651"
         sodipodi:nodetypes="cscscc" />
      <path
         style="fill:#800000;stroke-width:0.264583"
         d="m 120.02522,166.26599 c 0,0 12.5545,-11.94009 19.29433,-8.32762 6.73984,3.61247 17.8211,28.4067 17.8211,28.4067 0,0 -18.02376,-21.48673 -21.0546,-21.68005 -3.03083,-0.19333 -18.57611,7.47958 -18.57611,7.47958 z"
         id="path1653"
         sodipodi:nodetypes="cscscc" />
      <path
         style="fill:#800000;stroke-width:0.264583"
         d="m 143.57365,169.59412 c 0,0 12.5545,-11.94009 19.29433,-8.32762 6.73984,3.61247 17.8211,28.4067 17.8211,28.4067 0,0 -18.02376,-21.48673 -21.0546,-21.68005 -3.03083,-0.19333 -18.57611,7.47958 -18.57611,7.47958 z"
         id="path1655"
         sodipodi:nodetypes="cscscc" />
      <ellipse
         style="fill:#d40000;stroke-width:0.264583"
         id="ellipse1657"
         cx="102.87492"
         cy="161.66394"
         rx="56.582577"
         ry="32.927471" />
      <path
         id="path1659"
         style="fill:#d40000;stroke-width:0.228571"
         d="m 156.3066,106.14042 a 12.952058,17.354866 0 0 0 -6.63009,15.14326 12.952058,17.354866 0 0 0 12.95218,17.35449 12.952058,17.354866 0 0 0 12.95167,-17.35449 12.952058,17.354866 0 0 0 -5.96915,-14.61616 l -8.94725,15.72823 z" />
      <path
         id="path1661"
         style="fill:#d40000;stroke-width:0.228571"
         d="m 29.58586,114.36509 a 12.952058,17.354866 0 0 0 -6.63009,15.14327 12.952058,17.354866 0 0 0 12.95218,17.35449 12.952058,17.354866 0 0 0 12.95167,-17.35449 12.952058,17.354866 0 0 0 -5.96915,-14.61617 l -8.94725,15.72824 z" />
      <g
         id="g1667"
         transform="translate(54.08371,80.614701)">
        <circle
           style="fill:#000000;stroke-width:0.264583"
           id="circle1663"
           cx="32.795052"
           cy="50.937527"
           r="7.0839334" />
        <circle
           style="fill:#f9f9f9;stroke-width:0.264583"
           id="circle1665"
           cx="33.364563"
           cy="51.646866"
           r="4.5980244" />
      </g>
      <g
         id="g1673"
         transform="translate(81.2481,79.141011)">
        <circle
           style="fill:#000000;stroke-width:0.264583"
           id="circle1669"
           cx="32.795052"
           cy="50.937527"
           r="7.0839334" />
        <circle
           style="fill:#f9f9f9;stroke-width:0.264583"
           id="circle1671"
           cx="33.364563"
           cy="51.646866"
           r="4.5980244" />
      </g>
      <path
         style="fill:#800000;stroke-width:0.264583"
         d="m 47.70457,167.62871 c 0,0 -12.624321,-18.78252 -19.364158,-15.17005 -6.739838,3.61247 -15.321256,28.56738 -15.321256,28.56738 0,0 12.697183,-19.29386 15.728019,-19.48718 3.030836,-0.19333 21.472667,11.96846 21.472667,11.96846 z"
         id="path1675" />
      <path
         style="fill:#800000;stroke-width:0.264583"
         d="m 60.672285,176.17376 c 0,0 -12.624321,-18.78252 -19.364158,-15.17005 -6.739838,3.61247 -15.321256,28.56738 -15.321256,28.56738 0,0 12.697183,-19.29386 15.728019,-19.48718 3.030836,-0.19333 21.472667,11.96846 21.472667,11.96846 z"
         id="path1677" />
      <path
         style="fill:#800000;stroke-width:0.264583"
         d="m 73.275249,184.44699 c 0,0 -12.624321,-18.78252 -19.364158,-15.17005 -6.739838,3.61247 -15.321256,28.56738 -15.321256,28.56738 0,0 12.697183,-19.29386 15.728019,-19.48718 3.030836,-0.19333 21.472667,11.96846 21.472667,11.96846 z"
         id="path1679" />
    </g>
    <g
       id="g1713"
       inkscape:label="crab"
       transform="matrix(0.07890006,0,0,0.14425959,131.26446,-28.54094)">
      <path
         style="fill:#800000;stroke-width:0.264583"
         d="m 130.86927,166.8956 c 0,0 12.5545,-11.94009 19.29433,-8.32762 6.73984,3.61247 17.8211,28.4067 17.8211,28.4067 0,0 -18.02376,-21.48673 -21.0546,-21.68005 -3.03083,-0.19333 -18.57611,7.47958 -18.57611,7.47958 z"
         id="path1683"
         sodipodi:nodetypes="cscscc" />
      <path
         style="fill:#800000;stroke-width:0.264583"
         d="m 120.02522,166.26599 c 0,0 12.5545,-11.94009 19.29433,-8.32762 6.73984,3.61247 17.8211,28.4067 17.8211,28.4067 0,0 -18.02376,-21.48673 -21.0546,-21.68005 -3.03083,-0.19333 -18.57611,7.47958 -18.57611,7.47958 z"
         id="path1685"
         sodipodi:nodetypes="cscscc" />
      <path
         style="fill:#800000;stroke-width:0.264583"
         d="m 143.57365,169.59412 c 0,0 12.5545,-11.94009 19.29433,-8.32762 6.73984,3.61247 17.8211,28.4067 17.8211,28.4067 0,0 -18.02376,-21.48673 -21.0546,-21.68005 -3.03083,-0.19333 -18.57611,7.47958 -18.57611,7.47958 z"
         id="path1687"
         sodipodi:nodetypes="cscscc" />
      <ellipse
         style="fill:#d40000;stroke-width:0.264583"
         id="ellipse1689"
         cx="102.87492"
         cy="161.66394"
         rx="56.582577"
         ry="32.927471" />
      <path
         id="path1691"
         style="fill:#d40000;stroke-width:0.228571"
         d="m 156.3066,106.14042 a 12.952058,17.354866 0 0 0 -6.63009,15.14326 12.952058,17.354866 0 0 0 12.95218,17.35449 12.952058,17.354866 0 0 0 12.95167,-17.35449 12.952058,17.354866 0 0 0 -5.96915,-14.61616 l -8.94725,15.72823 z" />
      <path
         id="path1693"
         style="fill:#d40000;stroke-width:0.228571"
         d="m 29.58586,114.36509 a 12.952058,17.354866 0 0 0 -6.63009,15.14327 12.952058,17.354866 0 0 0 12.95218,17.35449 12.952058,17.354866 0 0 0 12.95167,-17.35449 12.952058,17.354866 0 0 0 -5.96915,-14.61617 l -8.94725,15.72824 z" />
      <g
         id="g1705"
         transform="translate(81.2481,79.141011)">
        <circle
           style="fill:#000000;stroke-width:0.264583"
           id="circle1701"
           cx="32.795052"
           cy="50.937527"
           r="7.0839334" />
        <circle
           style="fill:#f9f9f9;stroke-width:0.264583"
           id="circle1703"
           cx="33.364563"
           cy="51.646866"
           r="4.5980244" />
      </g>
      <path
         style="fill:#800000;stroke-width:0.264583"
         d="m 47.70457,167.62871 c 0,0 -12.624321,-18.78252 -19.364158,-15.17005 -6.739838,3.61247 -15.321256,28.56738 -15.321256,28.56738 0,0 12.697183,-19.29386 15.728019,-19.48718 3.030836,-0.19333 21.472667,11.96846 21.472667,11.96846 z"
         id="path1707" />
      <path
         style="fill:#800000;stroke-width:0.264583"
         d="m 60.672285,176.17376 c 0,0 -12.624321,-18.78252 -19.364158,-15.17005 -6.739838,3.61247 -15.321256,28.56738 -15.321256,28.56738 0,0 12.697183,-19.29386 15.728019,-19.48718 3.030836,-0.19333 21.472667,11.96846 21.472667,11.96846 z"
         id="path1709" />
      <path
         style="fill:#800000;stroke-width:0.264583"
         d="m 73.275249,184.44699 c 0,0 -12.624321,-18.78252 -19.364158,-15.17005 -6.739838,3.61247 -15.321256,28.56738 -15.321256,28.56738 0,0 12.697183,-19.29386 15.728019,-19.48718 3.030836,-0.19333 21.472667,11.96846 21.472667,11.96846 z"
         id="path1711" />
      <g
         id="g2541"
         transform="translate(54.084234,80.614768)">
        <circle
           style="fill:#000000;stroke-width:0.264583"
           id="circle2537"
           cx="32.795052"
           cy="50.937527"
           r="7.0839334" />
        <path
           id="path2539"
           style="fill:#f9f9f9;stroke-width:0.264583"
           d="m 37.962587,51.646866 c 0,2.539418 -1.888549,3.936848 -4.427967,3.936848 -2.539419,0 -4.768081,-1.39743 -4.768081,-3.936848 0,-2.539419 2.321279,-4.168409 4.860698,-4.168409 2.539419,0 4.33535,1.62899 4.33535,4.168409 z"
           sodipodi:nodetypes="sssss" />
      </g>
    </g>
    <g
       id="g1745"
       inkscape:label="crab"
       transform="matrix(0.07890006,0,0,0.14425959,144.49362,-28.54094)">
      <path
         style="fill:#800000;stroke-width:0.264583"
         d="m 130.86927,166.8956 c 0,0 12.5545,-11.94009 19.29433,-8.32762 6.73984,3.61247 17.8211,28.4067 17.8211,28.4067 0,0 -18.02376,-21.48673 -21.0546,-21.68005 -3.03083,-0.19333 -18.57611,7.47958 -18.57611,7.47958 z"
         id="path1715"
         sodipodi:nodetypes="cscscc" />
      <path
         style="fill:#800000;stroke-width:0.264583"
         d="m 120.02522,166.26599 c 0,0 12.5545,-11.94009 19.29433,-8.32762 6.73984,3.61247 17.8211,28.4067 17.8211,28.4067 0,0 -18.02376,-21.48673 -21.0546,-21.68005 -3.03083,-0.19333 -18.57611,7.47958 -18.57611,7.47958 z"
         id="path1717"
         sodipodi:nodetypes="cscscc" />
      <path
         style="fill:#800000;stroke-width:0.264583"
         d="m 143.57365,169.59412 c 0,0 12.5545,-11.94009 19.29433,-8.32762 6.73984,3.61247 17.8211,28.4067 17.8211,28.4067 0,0 -18.02376,-21.48673 -21.0546,-21.68005 -3.03083,-0.19333 -18.57611,7.47958 -18.57611,7.47958 z"
         id="path1719"
         sodipodi:nodetypes="cscscc" />
      <ellipse
         style="fill:#d40000;stroke-width:0.264583"
         id="ellipse1721"
         cx="102.87492"
         cy="161.66394"
         rx="56.582577"
         ry="32.927471" />
      <path
         id="path1723"
         style="fill:#d40000;stroke-width:0.228571"
         d="m 156.3066,106.14042 a 12.952058,17.354866 0 0 0 -6.63009,15.14326 12.952058,17.354866 0 0 0 12.95218,17.35449 12.952058,17.354866 0 0 0 12.95167,-17.35449 12.952058,17.354866 0 0 0 -5.96915,-14.61616 l -8.94725,15.72823 z" />
      <path
         id="path1725"
         style="fill:#d40000;stroke-width:0.228571"
         d="m 29.58586,114.36509 a 12.952058,17.354866 0 0 0 -6.63009,15.14327 12.952058,17.354866 0 0 0 12.95218,17.35449 12.952058,17.354866 0 0 0 12.95167,-17.35449 12.952058,17.354866 0 0 0 -5.96915,-14.61617 l -8.94725,15.72824 z" />
      <g
         id="g1737"
         transform="translate(81.2481,79.141011)">
        <circle
           style="fill:#000000;stroke-width:0.264583"
           id="circle1733"
           cx="32.795052"
           cy="50.937527"
           r="7.0839334" />
        <circle
           style="fill:#f9f9f9;stroke-width:0.264583"
           id="circle1735"
           cx="33.364563"
           cy="51.646866"
           r="4.5980244" />
      </g>
      <path
         style="fill:#800000;stroke-width:0.264583"
         d="m 47.70457,167.62871 c 0,0 -12.624321,-18.78252 -19.364158,-15.17005 -6.739838,3.61247 -15.321256,28.56738 -15.321256,28.56738 0,0 12.697183,-19.29386 15.728019,-19.48718 3.030836,-0.19333 21.472667,11.96846 21.472667,11.96846 z"
         id="path1739" />
      <path
         style="fill:#800000;stroke-width:0.264583"
         d="m 60.672285,176.17376 c 0,0 -12.624321,-18.78252 -19.364158,-15.17005 -6.739838,3.61247 -15.321256,28.56738 -15.321256,28.56738 0,0 12.697183,-19.29386 15.728019,-19.48718 3.030836,-0.19333 21.472667,11.96846 21.472667,11.96846 z"
         id="path1741" />
      <path
         style="fill:#800000;stroke-width:0.264583"
         d="m 73.275249,184.44699 c 0,0 -12.624321,-18.78252 -19.364158,-15.17005 -6.739838,3.61247 -15.321256,28.56738 -15.321256,28.56738 0,0 12.697183,-19.29386 15.728019,-19.48718 3.030836,-0.19333 21.472667,11.96846 21.472667,11.96846 z"
         id="path1743" />
      <g
         id="g2553"
         transform="translate(54.352594,80.806051)">
        <circle
           style="fill:#000000;stroke-width:0.264583"
           id="circle2549"
           cx="32.795052"
           cy="50.937527"
           r="7.0839334" />
        <path
           id="path2551"
           style="fill:#f9f9f9;stroke-width:0.264583"
           d="m 37.962587,51.646866 c -0.07988,0.924511 -2.175211,2.146134 -4.110149,2.169451 -1.754803,0.02115 -5.010153,-0.75571 -5.085899,-2.169451 -0.08393,-1.566542 2.14234,-2.96189 4.681759,-2.96189 2.539419,0 4.635486,1.559128 4.514289,2.96189 z"
           sodipodi:nodetypes="sssss" />
      </g>
    </g>
    <g
       id="g1777"
       inkscape:label="crab"
       transform="matrix(0.07890006,0,0,0.14425959,157.72279,-28.54094)">
      <path
         style="fill:#800000;stroke-width:0.264583"
         d="m 130.86927,166.8956 c 0,0 12.5545,-11.94009 19.29433,-8.32762 6.73984,3.61247 17.8211,28.4067 17.8211,28.4067 0,0 -18.02376,-21.48673 -21.0546,-21.68005 -3.03083,-0.19333 -18.57611,7.47958 -18.57611,7.47958 z"
         id="path1747"
         sodipodi:nodetypes="cscscc" />
      <path
         style="fill:#800000;stroke-width:0.264583"
         d="m 120.02522,166.26599 c 0,0 12.5545,-11.94009 19.29433,-8.32762 6.73984,3.61247 17.8211,28.4067 17.8211,28.4067 0,0 -18.02376,-21.48673 -21.0546,-21.68005 -3.03083,-0.19333 -18.57611,7.47958 -18.57611,7.47958 z"
         id="path1749"
         sodipodi:nodetypes="cscscc" />
      <path
         style="fill:#800000;stroke-width:0.264583"
         d="m 143.57365,169.59412 c 0,0 12.5545,-11.94009 19.29433,-8.32762 6.73984,3.61247 17.8211,28.4067 17.8211,28.4067 0,0 -18.02376,-21.48673 -21.0546,-21.68005 -3.03083,-0.19333 -18.57611,7.47958 -18.57611,7.47958 z"
         id="path1751"
         sodipodi:nodetypes="cscscc" />
      <ellipse
         style="fill:#d40000;stroke-width:0.264583"
         id="ellipse1753"
         cx="102.87492"
         cy="161.66394"
         rx="56.582577"
         ry="32.927471" />
      <path
         id="path1755"
         style="fill:#d40000;stroke-width:0.228571"
         d="m 156.3066,106.14042 a 12.952058,17.354866 0 0 0 -6.63009,15.14326 12.952058,17.354866 0 0 0 12.95218,17.35449 12.952058,17.354866 0 0 0 12.95167,-17.35449 12.952058,17.354866 0 0 0 -5.96915,-14.61616 l -8.94725,15.72823 z" />
      <path
         id="path1757"
         style="fill:#d40000;stroke-width:0.228571"
         d="m 29.58586,114.36509 a 12.952058,17.354866 0 0 0 -6.63009,15.14327 12.952058,17.354866 0 0 0 12.95218,17.35449 12.952058,17.354866 0 0 0 12.95167,-17.35449 12.952058,17.354866 0 0 0 -5.96915,-14.61617 l -8.94725,15.72824 z" />
      <g
         id="g1763"
         transform="translate(54.08371,80.614701)">
        <circle
           style="fill:#000000;stroke-width:0.264583"
           id="circle1759"
           cx="32.795052"
           cy="50.937527"
           r="7.0839334" />
      </g>
      <g
         id="g1769"
         transform="translate(81.2481,79.141011)">
        <circle
           style="fill:#000000;stroke-width:0.264583"
           id="circle1765"
           cx="32.795052"
           cy="50.937527"
           r="7.0839334" />
        <circle
           style="fill:#f9f9f9;stroke-width:0.264583"
           id="circle1767"
           cx="33.364563"
           cy="51.646866"
           r="4.5980244" />
      </g>
      <path
         style="fill:#800000;stroke-width:0.264583"
         d="m 47.70457,167.62871 c 0,0 -12.624321,-18.78252 -19.364158,-15.17005 -6.739838,3.61247 -15.321256,28.56738 -15.321256,28.56738 0,0 12.697183,-19.29386 15.728019,-19.48718 3.030836,-0.19333 21.472667,11.96846 21.472667,11.96846 z"
         id="path1771" />
      <path
         style="fill:#800000;stroke-width:0.264583"
         d="m 60.672285,176.17376 c 0,0 -12.624321,-18.78252 -19.364158,-15.17005 -6.739838,3.61247 -15.321256,28.56738 -15.321256,28.56738 0,0 12.697183,-19.29386 15.728019,-19.48718 3.030836,-0.19333 21.472667,11.96846 21.472667,11.96846 z"
         id="path1773" />
      <path
         style="fill:#800000;stroke-width:0.264583"
         d="m 73.275249,184.44699 c 0,0 -12.624321,-18.78252 -19.364158,-15.17005 -6.739838,3.61247 -15.321256,28.56738 -15.321256,28.56738 0,0 12.697183,-19.29386 15.728019,-19.48718 3.030836,-0.19333 21.472667,11.96846 21.472667,11.96846 z"
         id="path1775" />
    </g>
    <g
       id="g1809"
       inkscape:label="crab"
       transform="matrix(0.07890006,0,0,0.14425959,170.95196,-28.54094)">
      <path
         style="fill:#800000;stroke-width:0.264583"
         d="m 130.86927,166.8956 c 0,0 12.5545,-11.94009 19.29433,-8.32762 6.73984,3.61247 17.8211,28.4067 17.8211,28.4067 0,0 -18.02376,-21.48673 -21.0546,-21.68005 -3.03083,-0.19333 -18.57611,7.47958 -18.57611,7.47958 z"
         id="path1779"
         sodipodi:nodetypes="cscscc" />
      <path
         style="fill:#800000;stroke-width:0.264583"
         d="m 120.02522,166.26599 c 0,0 12.5545,-11.94009 19.29433,-8.32762 6.73984,3.61247 17.8211,28.4067 17.8211,28.4067 0,0 -18.02376,-21.48673 -21.0546,-21.68005 -3.03083,-0.19333 -18.57611,7.47958 -18.57611,7.47958 z"
         id="path1781"
         sodipodi:nodetypes="cscscc" />
      <path
         style="fill:#800000;stroke-width:0.264583"
         d="m 143.57365,169.59412 c 0,0 12.5545,-11.94009 19.29433,-8.32762 6.73984,3.61247 17.8211,28.4067 17.8211,28.4067 0,0 -18.02376,-21.48673 -21.0546,-21.68005 -3.03083,-0.19333 -18.57611,7.47958 -18.57611,7.47958 z"
         id="path1783"
         sodipodi:nodetypes="cscscc" />
      <ellipse
         style="fill:#d40000;stroke-width:0.264583"
         id="ellipse1785"
         cx="102.87492"
         cy="161.66394"
         rx="56.582577"
         ry="32.927471" />
      <path
         id="path1787"
         style="fill:#d40000;stroke-width:0.228571"
         d="m 156.3066,106.14042 a 12.952058,17.354866 0 0 0 -6.63009,15.14326 12.952058,17.354866 0 0 0 12.95218,17.35449 12.952058,17.354866 0 0 0 12.95167,-17.35449 12.952058,17.354866 0 0 0 -5.96915,-14.61616 l -8.94725,15.72823 z" />
      <path
         id="path1789"
         style="fill:#d40000;stroke-width:0.228571"
         d="m 29.58586,114.36509 a 12.952058,17.354866 0 0 0 -6.63009,15.14327 12.952058,17.354866 0 0 0 12.95218,17.35449 12.952058,17.354866 0 0 0 12.95167,-17.35449 12.952058,17.354866 0 0 0 -5.96915,-14.61617 l -8.94725,15.72824 z" />
      <g
         id="g1801"
         transform="translate(81.2481,79.141011)">
        <circle
           style="fill:#000000;stroke-width:0.264583"
           id="circle1797"
           cx="32.795052"
           cy="50.937527"
           r="7.0839334" />
        <circle
           style="fill:#f9f9f9;stroke-width:0.264583"
           id="circle1799"
           cx="33.364563"
           cy="51.646866"
           r="4.5980244" />
      </g>
      <path
         style="fill:#800000;stroke-width:0.264583"
         d="m 47.70457,167.62871 c 0,0 -12.624321,-18.78252 -19.364158,-15.17005 -6.739838,3.61247 -15.321256,28.56738 -15.321256,28.56738 0,0 12.697183,-19.29386 15.728019,-19.48718 3.030836,-0.19333 21.472667,11.96846 21.472667,11.96846 z"
         id="path1803" />
      <path
         style="fill:#800000;stroke-width:0.264583"
         d="m 60.672285,176.17376 c 0,0 -12.624321,-18.78252 -19.364158,-15.17005 -6.739838,3.61247 -15.321256,28.56738 -15.321256,28.56738 0,0 12.697183,-19.29386 15.728019,-19.48718 3.030836,-0.19333 21.472667,11.96846 21.472667,11.96846 z"
         id="path1805" />
      <path
         style="fill:#800000;stroke-width:0.264583"
         d="m 73.275249,184.44699 c 0,0 -12.624321,-18.78252 -19.364158,-15.17005 -6.739838,3.61247 -15.321256,28.56738 -15.321256,28.56738 0,0 12.697183,-19.29386 15.728019,-19.48718 3.030836,-0.19333 21.472667,11.96846 21.472667,11.96846 z"
         id="path1807" />
      <g
         id="g2565"
         transform="translate(54.352518,80.614768)">
        <circle
           style="fill:#000000;stroke-width:0.264583"
           id="circle2561"
           cx="32.795052"
           cy="50.937527"
           r="7.0839334" />
        <path
           id="path2563"
           style="fill:#f9f9f9;stroke-width:0.264583"
           d="m 37.962587,51.646866 c -0.07988,0.924511 -2.175211,2.146134 -4.110149,2.169451 -1.754803,0.02115 -5.010153,-0.75571 -5.085899,-2.169451 -0.08393,-1.566542 2.14234,-2.96189 4.681759,-2.96189 2.539419,0 4.635486,1.559128 4.514289,2.96189 z"
           sodipodi:nodetypes="sssss" />
      </g>
    </g>
    <g
       id="g2084"
       inkscape:label="crab"
       transform="matrix(0.07890006,0,0,0.14425959,184.18113,-28.54094)">
      <path
         style="fill:#800000;stroke-width:0.264583"
         d="m 130.86927,166.8956 c 0,0 12.5545,-11.94009 19.29433,-8.32762 6.73984,3.61247 17.8211,28.4067 17.8211,28.4067 0,0 -18.02376,-21.48673 -21.0546,-21.68005 -3.03083,-0.19333 -18.57611,7.47958 -18.57611,7.47958 z"
         id="path2054"
         sodipodi:nodetypes="cscscc" />
      <path
         style="fill:#800000;stroke-width:0.264583"
         d="m 120.02522,166.26599 c 0,0 12.5545,-11.94009 19.29433,-8.32762 6.73984,3.61247 17.8211,28.4067 17.8211,28.4067 0,0 -18.02376,-21.48673 -21.0546,-21.68005 -3.03083,-0.19333 -18.57611,7.47958 -18.57611,7.47958 z"
         id="path2056"
         sodipodi:nodetypes="cscscc" />
      <path
         style="fill:#800000;stroke-width:0.264583"
         d="m 143.57365,169.59412 c 0,0 12.5545,-11.94009 19.29433,-8.32762 6.73984,3.61247 17.8211,28.4067 17.8211,28.4067 0,0 -18.02376,-21.48673 -21.0546,-21.68005 -3.03083,-0.19333 -18.57611,7.47958 -18.57611,7.47958 z"
         id="path2058"
         sodipodi:nodetypes="cscscc" />
      <ellipse
         style="fill:#d40000;stroke-width:0.264583"
         id="ellipse2060"
         cx="102.87492"
         cy="161.66394"
         rx="56.582577"
         ry="32.927471" />
      <path
         id="path2062"
         style="fill:#d40000;stroke-width:0.228571"
         d="m 156.3066,106.14042 a 12.952058,17.354866 0 0 0 -6.63009,15.14326 12.952058,17.354866 0 0 0 12.95218,17.35449 12.952058,17.354866 0 0 0 12.95167,-17.35449 12.952058,17.354866 0 0 0 -5.96915,-14.61616 l -8.94725,15.72823 z" />
      <path
         id="path2064"
         style="fill:#d40000;stroke-width:0.228571"
         d="m 29.58586,114.36509 a 12.952058,17.354866 0 0 0 -6.63009,15.14327 12.952058,17.354866 0 0 0 12.95218,17.35449 12.952058,17.354866 0 0 0 12.95167,-17.35449 12.952058,17.354866 0 0 0 -5.96915,-14.61617 l -8.94725,15.72824 z" />
      <g
         id="g2070"
         transform="translate(54.08371,80.614701)">
        <circle
           style="fill:#000000;stroke-width:0.264583"
           id="circle2066"
           cx="32.795052"
           cy="50.937527"
           r="7.0839334" />
        <circle
           style="fill:#f9f9f9;stroke-width:0.264583"
           id="circle2068"
           cx="33.364563"
           cy="51.646866"
           r="4.5980244" />
      </g>
      <g
         id="g2076"
         transform="translate(81.2481,79.141011)">
        <circle
           style="fill:#000000;stroke-width:0.264583"
           id="circle2072"
           cx="32.795052"
           cy="50.937527"
           r="7.0839334" />
        <circle
           style="fill:#f9f9f9;stroke-width:0.264583"
           id="circle2074"
           cx="33.364563"
           cy="51.646866"
           r="4.5980244" />
      </g>
      <path
         style="fill:#800000;stroke-width:0.264583"
         d="m 47.70457,167.62871 c 0,0 -12.624321,-18.78252 -19.364158,-15.17005 -6.739838,3.61247 -15.321256,28.56738 -15.321256,28.56738 0,0 12.697183,-19.29386 15.728019,-19.48718 3.030836,-0.19333 21.472667,11.96846 21.472667,11.96846 z"
         id="path2078" />
      <path
         style="fill:#800000;stroke-width:0.264583"
         d="m 60.672285,176.17376 c 0,0 -12.624321,-18.78252 -19.364158,-15.17005 -6.739838,3.61247 -15.321256,28.56738 -15.321256,28.56738 0,0 12.697183,-19.29386 15.728019,-19.48718 3.030836,-0.19333 21.472667,11.96846 21.472667,11.96846 z"
         id="path2080" />
      <path
         style="fill:#800000;stroke-width:0.264583"
         d="m 73.275249,184.44699 c 0,0 -12.624321,-18.78252 -19.364158,-15.17005 -6.739838,3.61247 -15.321256,28.56738 -15.321256,28.56738 0,0 12.697183,-19.29386 15.728019,-19.48718 3.030836,-0.19333 21.472667,11.96846 21.472667,11.96846 z"
         id="path2082" />
    </g>
    <g
       id="g2116"
       inkscape:label="crab"
       transform="matrix(0.07890006,0,0,0.14425959,197.4103,-28.54094)">
      <path
         style="fill:#800000;stroke-width:0.264583"
         d="m 130.86927,166.8956 c 0,0 12.5545,-11.94009 19.29433,-8.32762 6.73984,3.61247 17.8211,28.4067 17.8211,28.4067 0,0 -18.02376,-21.48673 -21.0546,-21.68005 -3.03083,-0.19333 -18.57611,7.47958 -18.57611,7.47958 z"
         id="path2086"
         sodipodi:nodetypes="cscscc" />
      <path
         style="fill:#800000;stroke-width:0.264583"
         d="m 120.02522,166.26599 c 0,0 12.5545,-11.94009 19.29433,-8.32762 6.73984,3.61247 17.8211,28.4067 17.8211,28.4067 0,0 -18.02376,-21.48673 -21.0546,-21.68005 -3.03083,-0.19333 -18.57611,7.47958 -18.57611,7.47958 z"
         id="path2088"
         sodipodi:nodetypes="cscscc" />
      <path
         style="fill:#800000;stroke-width:0.264583"
         d="m 143.57365,169.59412 c 0,0 12.5545,-11.94009 19.29433,-8.32762 6.73984,3.61247 17.8211,28.4067 17.8211,28.4067 0,0 -18.02376,-21.48673 -21.0546,-21.68005 -3.03083,-0.19333 -18.57611,7.47958 -18.57611,7.47958 z"
         id="path2090"
         sodipodi:nodetypes="cscscc" />
      <ellipse
         style="fill:#d40000;stroke-width:0.264583"
         id="ellipse2092"
         cx="102.87492"
         cy="161.66394"
         rx="56.582577"
         ry="32.927471" />
      <path
         id="path2094"
         style="fill:#d40000;stroke-width:0.228571"
         d="m 156.3066,106.14042 a 12.952058,17.354866 0 0 0 -6.63009,15.14326 12.952058,17.354866 0 0 0 12.95218,17.35449 12.952058,17.354866 0 0 0 12.95167,-17.35449 12.952058,17.354866 0 0 0 -5.96915,-14.61616 l -8.94725,15.72823 z" />
      <path
         id="path2096"
         style="fill:#d40000;stroke-width:0.228571"
         d="m 29.58586,114.36509 a 12.952058,17.354866 0 0 0 -6.63009,15.14327 12.952058,17.354866 0 0 0 12.95218,17.35449 12.952058,17.354866 0 0 0 12.95167,-17.35449 12.952058,17.354866 0 0 0 -5.96915,-14.61617 l -8.94725,15.72824 z" />
      <g
         id="g2102"
         transform="translate(54.08371,80.614701)">
        <circle
           style="fill:#000000;stroke-width:0.264583"
           id="circle2098"
           cx="32.795052"
           cy="50.937527"
           r="7.0839334" />
        <circle
           style="fill:#f9f9f9;stroke-width:0.264583"
           id="circle2100"
           cx="33.364563"
           cy="51.646866"
           r="4.5980244" />
      </g>
      <g
         id="g2108"
         transform="translate(81.2481,79.141011)">
        <circle
           style="fill:#000000;stroke-width:0.264583"
           id="circle2104"
           cx="32.795052"
           cy="50.937527"
           r="7.0839334" />
        <circle
           style="fill:#f9f9f9;stroke-width:0.264583"
           id="circle2106"
           cx="33.364563"
           cy="51.646866"
           r="4.5980244" />
      </g>
      <path
         style="fill:#800000;stroke-width:0.264583"
         d="m 47.70457,167.62871 c 0,0 -12.624321,-18.78252 -19.364158,-15.17005 -6.739838,3.61247 -15.321256,28.56738 -15.321256,28.56738 0,0 12.697183,-19.29386 15.728019,-19.48718 3.030836,-0.19333 21.472667,11.96846 21.472667,11.96846 z"
         id="path2110" />
      <path
         style="fill:#800000;stroke-width:0.264583"
         d="m 60.672285,176.17376 c 0,0 -12.624321,-18.78252 -19.364158,-15.17005 -6.739838,3.61247 -15.321256,28.56738 -15.321256,28.56738 0,0 12.697183,-19.29386 15.728019,-19.48718 3.030836,-0.19333 21.472667,11.96846 21.472667,11.96846 z"
         id="path2112" />
      <path
         style="fill:#800000;stroke-width:0.264583"
         d="m 73.275249,184.44699 c 0,0 -12.624321,-18.78252 -19.364158,-15.17005 -6.739838,3.61247 -15.321256,28.56738 -15.321256,28.56738 0,0 12.697183,-19.29386 15.728019,-19.48718 3.030836,-0.19333 21.472667,11.96846 21.472667,11.96846 z"
         id="path2114" />
    </g>
    <g
       id="g2148"
       inkscape:label="crab"
       transform="matrix(0.07890006,0,0,0.14425959,210.63946,-28.54094)">
      <path
         style="fill:#800000;stroke-width:0.264583"
         d="m 130.86927,166.8956 c 0,0 12.5545,-11.94009 19.29433,-8.32762 6.73984,3.61247 17.8211,28.4067 17.8211,28.4067 0,0 -18.02376,-21.48673 -21.0546,-21.68005 -3.03083,-0.19333 -18.57611,7.47958 -18.57611,7.47958 z"
         id="path2118"
         sodipodi:nodetypes="cscscc" />
      <path
         style="fill:#800000;stroke-width:0.264583"
         d="m 120.02522,166.26599 c 0,0 12.5545,-11.94009 19.29433,-8.32762 6.73984,3.61247 17.8211,28.4067 17.8211,28.4067 0,0 -18.02376,-21.48673 -21.0546,-21.68005 -3.03083,-0.19333 -18.57611,7.47958 -18.57611,7.47958 z"
         id="path2120"
         sodipodi:nodetypes="cscscc" />
      <path
         style="fill:#800000;stroke-width:0.264583"
         d="m 143.57365,169.59412 c 0,0 12.5545,-11.94009 19.29433,-8.32762 6.73984,3.61247 17.8211,28.4067 17.8211,28.4067 0,0 -18.02376,-21.48673 -21.0546,-21.68005 -3.03083,-0.19333 -18.57611,7.47958 -18.57611,7.47958 z"
         id="path2122"
         sodipodi:nodetypes="cscscc" />
      <ellipse
         style="fill:#d40000;stroke-width:0.264583"
         id="ellipse2124"
         cx="102.87492"
         cy="161.66394"
         rx="56.582577"
         ry="32.927471" />
      <path
         id="path2126"
         style="fill:#d40000;stroke-width:0.228571"
         d="m 156.3066,106.14042 a 12.952058,17.354866 0 0 0 -6.63009,15.14326 12.952058,17.354866 0 0 0 12.95218,17.35449 12.952058,17.354866 0 0 0 12.95167,-17.35449 12.952058,17.354866 0 0 0 -5.96915,-14.61616 l -8.94725,15.72823 z" />
      <path
         id="path2128"
         style="fill:#d40000;stroke-width:0.228571"
         d="m 29.58586,114.36509 a 12.952058,17.354866 0 0 0 -6.63009,15.14327 12.952058,17.354866 0 0 0 12.95218,17.35449 12.952058,17.354866 0 0 0 12.95167,-17.35449 12.952058,17.354866 0 0 0 -5.96915,-14.61617 l -8.94725,15.72824 z" />
      <g
         id="g2134"
         transform="translate(54.08371,80.614701)">
        <circle
           style="fill:#000000;stroke-width:0.264583"
           id="circle2130"
           cx="32.795052"
           cy="50.937527"
           r="7.0839334" />
        <circle
           style="fill:#f9f9f9;stroke-width:0.264583"
           id="circle2132"
           cx="33.364563"
           cy="51.646866"
           r="4.5980244" />
      </g>
      <g
         id="g2140"
         transform="translate(81.2481,79.141011)">
        <circle
           style="fill:#000000;stroke-width:0.264583"
           id="circle2136"
           cx="32.795052"
           cy="50.937527"
           r="7.0839334" />
        <circle
           style="fill:#f9f9f9;stroke-width:0.264583"
           id="circle2138"
           cx="33.364563"
           cy="51.646866"
           r="4.5980244" />
      </g>
      <path
         style="fill:#800000;stroke-width:0.264583"
         d="m 47.70457,167.62871 c 0,0 -12.624321,-18.78252 -19.364158,-15.17005 -6.739838,3.61247 -15.321256,28.56738 -15.321256,28.56738 0,0 12.697183,-19.29386 15.728019,-19.48718 3.030836,-0.19333 21.472667,11.96846 21.472667,11.96846 z"
         id="path2142" />
      <path
         style="fill:#800000;stroke-width:0.264583"
         d="m 60.672285,176.17376 c 0,0 -12.624321,-18.78252 -19.364158,-15.17005 -6.739838,3.61247 -15.321256,28.56738 -15.321256,28.56738 0,0 12.697183,-19.29386 15.728019,-19.48718 3.030836,-0.19333 21.472667,11.96846 21.472667,11.96846 z"
         id="path2144" />
      <path
         style="fill:#800000;stroke-width:0.264583"
         d="m 73.275249,184.44699 c 0,0 -12.624321,-18.78252 -19.364158,-15.17005 -6.739838,3.61247 -15.321256,28.56738 -15.321256,28.56738 0,0 12.697183,-19.29386 15.728019,-19.48718 3.030836,-0.19333 21.472667,11.96846 21.472667,11.96846 z"
         id="path2146" />
    </g>
    <g
       id="g2180"
       inkscape:label="crab"
       transform="matrix(0.07890006,0,0,0.14425959,223.86863,-28.54094)">
      <path
         style="fill:#800000;stroke-width:0.264583"
         d="m 130.86927,166.8956 c 0,0 12.5545,-11.94009 19.29433,-8.32762 6.73984,3.61247 17.8211,28.4067 17.8211,28.4067 0,0 -18.02376,-21.48673 -21.0546,-21.68005 -3.03083,-0.19333 -18.57611,7.47958 -18.57611,7.47958 z"
         id="path2150"
         sodipodi:nodetypes="cscscc" />
      <path
         style="fill:#800000;stroke-width:0.264583"
         d="m 120.02522,166.26599 c 0,0 12.5545,-11.94009 19.29433,-8.32762 6.73984,3.61247 17.8211,28.4067 17.8211,28.4067 0,0 -18.02376,-21.48673 -21.0546,-21.68005 -3.03083,-0.19333 -18.57611,7.47958 -18.57611,7.47958 z"
         id="path2152"
         sodipodi:nodetypes="cscscc" />
      <path
         style="fill:#800000;stroke-width:0.264583"
         d="m 143.57365,169.59412 c 0,0 12.5545,-11.94009 19.29433,-8.32762 6.73984,3.61247 17.8211,28.4067 17.8211,28.4067 0,0 -18.02376,-21.48673 -21.0546,-21.68005 -3.03083,-0.19333 -18.57611,7.47958 -18.57611,7.47958 z"
         id="path2154"
         sodipodi:nodetypes="cscscc" />
      <ellipse
         style="fill:#d40000;stroke-width:0.264583"
         id="ellipse2156"
         cx="102.87492"
         cy="161.66394"
         rx="56.582577"
         ry="32.927471" />
      <path
         id="path2158"
         style="fill:#d40000;stroke-width:0.228571"
         d="m 156.3066,106.14042 a 12.952058,17.354866 0 0 0 -6.63009,15.14326 12.952058,17.354866 0 0 0 12.95218,17.35449 12.952058,17.354866 0 0 0 12.95167,-17.35449 12.952058,17.354866 0 0 0 -5.96915,-14.61616 l -8.94725,15.72823 z" />
      <path
         id="path2160"
         style="fill:#d40000;stroke-width:0.228571"
         d="m 29.58586,114.36509 a 12.952058,17.354866 0 0 0 -6.63009,15.14327 12.952058,17.354866 0 0 0 12.95218,17.35449 12.952058,17.354866 0 0 0 12.95167,-17.35449 12.952058,17.354866 0 0 0 -5.96915,-14.61617 l -8.94725,15.72824 z" />
      <g
         id="g2166"
         transform="translate(54.08371,80.614701)">
        <circle
           style="fill:#000000;stroke-width:0.264583"
           id="circle2162"
           cx="32.795052"
           cy="50.937527"
           r="7.0839334" />
        <circle
           style="fill:#f9f9f9;stroke-width:0.264583"
           id="circle2164"
           cx="33.364563"
           cy="51.646866"
           r="4.5980244" />
      </g>
      <g
         id="g2172"
         transform="translate(81.2481,79.141011)">
        <circle
           style="fill:#000000;stroke-width:0.264583"
           id="circle2168"
           cx="32.795052"
           cy="50.937527"
           r="7.0839334" />
        <circle
           style="fill:#f9f9f9;stroke-width:0.264583"
           id="circle2170"
           cx="33.364563"
           cy="51.646866"
           r="4.5980244" />
      </g>
      <path
         style="fill:#800000;stroke-width:0.264583"
         d="m 47.70457,167.62871 c 0,0 -12.624321,-18.78252 -19.364158,-15.17005 -6.739838,3.61247 -15.321256,28.56738 -15.321256,28.56738 0,0 12.697183,-19.29386 15.728019,-19.48718 3.030836,-0.19333 21.472667,11.96846 21.472667,11.96846 z"
         id="path2174" />
      <path
         style="fill:#800000;stroke-width:0.264583"
         d="m 60.672285,176.17376 c 0,0 -12.624321,-18.78252 -19.364158,-15.17005 -6.739838,3.61247 -15.321256,28.56738 -15.321256,28.56738 0,0 12.697183,-19.29386 15.728019,-19.48718 3.030836,-0.19333 21.472667,11.96846 21.472667,11.96846 z"
         id="path2176" />
      <path
         style="fill:#800000;stroke-width:0.264583"
         d="m 73.275249,184.44699 c 0,0 -12.624321,-18.78252 -19.364158,-15.17005 -6.739838,3.61247 -15.321256,28.56738 -15.321256,28.56738 0,0 12.697183,-19.29386 15.728019,-19.48718 3.030836,-0.19333 21.472667,11.96846 21.472667,11.96846 z"
         id="path2178" />
    </g>
    <g
       id="g2212"
       inkscape:label="crab"
       transform="matrix(0.07890006,0,0,0.14425959,237.0978,-28.54094)">
      <path
         style="fill:#800000;stroke-width:0.264583"
         d="m 130.86927,166.8956 c 0,0 12.5545,-11.94009 19.29433,-8.32762 6.73984,3.61247 17.8211,28.4067 17.8211,28.4067 0,0 -18.02376,-21.48673 -21.0546,-21.68005 -3.03083,-0.19333 -18.57611,7.47958 -18.57611,7.47958 z"
         id="path2182"
         sodipodi:nodetypes="cscscc" />
      <path
         style="fill:#800000;stroke-width:0.264583"
         d="m 120.02522,166.26599 c 0,0 12.5545,-11.94009 19.29433,-8.32762 6.73984,3.61247 17.8211,28.4067 17.8211,28.4067 0,0 -18.02376,-21.48673 -21.0546,-21.68005 -3.03083,-0.19333 -18.57611,7.47958 -18.57611,7.47958 z"
         id="path2184"
         sodipodi:nodetypes="cscscc" />
      <path
         style="fill:#800000;stroke-width:0.264583"
         d="m 143.57365,169.59412 c 0,0 12.5545,-11.94009 19.29433,-8.32762 6.73984,3.61247 17.8211,28.4067 17.8211,28.4067 0,0 -18.02376,-21.48673 -21.0546,-21.68005 -3.03083,-0.19333 -18.57611,7.47958 -18.57611,7.47958 z"
         id="path2186"
         sodipodi:nodetypes="cscscc" />
      <ellipse
         style="fill:#d40000;stroke-width:0.264583"
         id="ellipse2188"
         cx="102.87492"
         cy="161.66394"
         rx="56.582577"
         ry="32.927471" />
      <path
         id="path2190"
         style="fill:#d40000;stroke-width:0.228571"
         d="m 156.3066,106.14042 a 12.952058,17.354866 0 0 0 -6.63009,15.14326 12.952058,17.354866 0 0 0 12.95218,17.35449 12.952058,17.354866 0 0 0 12.95167,-17.35449 12.952058,17.354866 0 0 0 -5.96915,-14.61616 l -8.94725,15.72823 z" />
      <path
         id="path2192"
         style="fill:#d40000;stroke-width:0.228571"
         d="m 29.58586,114.36509 a 12.952058,17.354866 0 0 0 -6.63009,15.14327 12.952058,17.354866 0 0 0 12.95218,17.35449 12.952058,17.354866 0 0 0 12.95167,-17.35449 12.952058,17.354866 0 0 0 -5.96915,-14.61617 l -8.94725,15.72824 z" />
      <g
         id="g2198"
         transform="translate(54.08371,80.614701)">
        <circle
           style="fill:#000000;stroke-width:0.264583"
           id="circle2194"
           cx="32.795052"
           cy="50.937527"
           r="7.0839334" />
        <circle
           style="fill:#f9f9f9;stroke-width:0.264583"
           id="circle2196"
           cx="33.364563"
           cy="51.646866"
           r="4.5980244" />
      </g>
      <g
         id="g2204"
         transform="translate(81.2481,79.141011)">
        <circle
           style="fill:#000000;stroke-width:0.264583"
           id="circle2200"
           cx="32.795052"
           cy="50.937527"
           r="7.0839334" />
        <circle
           style="fill:#f9f9f9;stroke-width:0.264583"
           id="circle2202"
           cx="33.364563"
           cy="51.646866"
           r="4.5980244" />
      </g>
      <path
         style="fill:#800000;stroke-width:0.264583"
         d="m 47.70457,167.62871 c 0,0 -12.624321,-18.78252 -19.364158,-15.17005 -6.739838,3.61247 -15.321256,28.56738 -15.321256,28.56738 0,0 12.697183,-19.29386 15.728019,-19.48718 3.030836,-0.19333 21.472667,11.96846 21.472667,11.96846 z"
         id="path2206" />
      <path
         style="fill:#800000;stroke-width:0.264583"
         d="m 60.672285,176.17376 c 0,0 -12.624321,-18.78252 -19.364158,-15.17005 -6.739838,3.61247 -15.321256,28.56738 -15.321256,28.56738 0,0 12.697183,-19.29386 15.728019,-19.48718 3.030836,-0.19333 21.472667,11.96846 21.472667,11.96846 z"
         id="path2208" />
      <path
         style="fill:#800000;stroke-width:0.264583"
         d="m 73.275249,184.44699 c 0,0 -12.624321,-18.78252 -19.364158,-15.17005 -6.739838,3.61247 -15.321256,28.56738 -15.321256,28.56738 0,0 12.697183,-19.29386 15.728019,-19.48718 3.030836,-0.19333 21.472667,11.96846 21.472667,11.96846 z"
         id="path2210" />
    </g>
    <g
       id="g2922"
       inkscape:label="crab"
       transform="matrix(0.07890006,0,0,0.14425959,-14.256379,-15.311773)">
      <path
         style="fill:#800000;stroke-width:0.264583"
         d="m 130.86927,166.8956 c 0,0 12.5545,-11.94009 19.29433,-8.32762 6.73984,3.61247 17.8211,28.4067 17.8211,28.4067 0,0 -18.02376,-21.48673 -21.0546,-21.68005 -3.03083,-0.19333 -18.57611,7.47958 -18.57611,7.47958 z"
         id="path2892"
         sodipodi:nodetypes="cscscc" />
      <path
         style="fill:#800000;stroke-width:0.264583"
         d="m 120.02522,166.26599 c 0,0 12.5545,-11.94009 19.29433,-8.32762 6.73984,3.61247 17.8211,28.4067 17.8211,28.4067 0,0 -18.02376,-21.48673 -21.0546,-21.68005 -3.03083,-0.19333 -18.57611,7.47958 -18.57611,7.47958 z"
         id="path2894"
         sodipodi:nodetypes="cscscc" />
      <path
         style="fill:#800000;stroke-width:0.264583"
         d="m 143.57365,169.59412 c 0,0 12.5545,-11.94009 19.29433,-8.32762 6.73984,3.61247 17.8211,28.4067 17.8211,28.4067 0,0 -18.02376,-21.48673 -21.0546,-21.68005 -3.03083,-0.19333 -18.57611,7.47958 -18.57611,7.47958 z"
         id="path2896"
         sodipodi:nodetypes="cscscc" />
      <ellipse
         style="fill:#d40000;stroke-width:0.264583"
         id="ellipse2898"
         cx="102.87492"
         cy="161.66394"
         rx="56.582577"
         ry="32.927471" />
      <path
         id="path2900"
         style="fill:#d40000;stroke-width:0.228571"
         d="m 156.3066,106.14042 a 12.952058,17.354866 0 0 0 -6.63009,15.14326 12.952058,17.354866 0 0 0 12.95218,17.35449 12.952058,17.354866 0 0 0 12.95167,-17.35449 12.952058,17.354866 0 0 0 -5.96915,-14.61616 l -8.94725,15.72823 z" />
      <path
         id="path2902"
         style="fill:#d40000;stroke-width:0.228571"
         d="m 29.58586,114.36509 a 12.952058,17.354866 0 0 0 -6.63009,15.14327 12.952058,17.354866 0 0 0 12.95218,17.35449 12.952058,17.354866 0 0 0 12.95167,-17.35449 12.952058,17.354866 0 0 0 -5.96915,-14.61617 l -8.94725,15.72824 z" />
      <g
         id="g2908"
         transform="translate(54.08371,80.614701)">
        <circle
           style="fill:#000000;stroke-width:0.264583"
           id="circle2904"
           cx="32.795052"
           cy="50.937527"
           r="7.0839334" />
        <circle
           style="fill:#f9f9f9;stroke-width:0.264583"
           id="circle2906"
           cx="33.364563"
           cy="51.646866"
           r="4.5980244" />
      </g>
      <g
         id="g2914"
         transform="translate(81.2481,79.141011)">
        <circle
           style="fill:#000000;stroke-width:0.264583"
           id="circle2910"
           cx="32.795052"
           cy="50.937527"
           r="7.0839334" />
        <circle
           style="fill:#f9f9f9;stroke-width:0.264583"
           id="circle2912"
           cx="33.364563"
           cy="51.646866"
           r="4.5980244" />
      </g>
      <path
         style="fill:#800000;stroke-width:0.264583"
         d="m 47.70457,167.62871 c 0,0 -12.624321,-18.78252 -19.364158,-15.17005 -6.739838,3.61247 -15.321256,28.56738 -15.321256,28.56738 0,0 12.697183,-19.29386 15.728019,-19.48718 3.030836,-0.19333 21.472667,11.96846 21.472667,11.96846 z"
         id="path2916" />
      <path
         style="fill:#800000;stroke-width:0.264583"
         d="m 60.672285,176.17376 c 0,0 -12.624321,-18.78252 -19.364158,-15.17005 -6.739838,3.61247 -15.321256,28.56738 -15.321256,28.56738 0,0 12.697183,-19.29386 15.728019,-19.48718 3.030836,-0.19333 21.472667,11.96846 21.472667,11.96846 z"
         id="path2918" />
      <path
         style="fill:#800000;stroke-width:0.264583"
         d="m 73.275249,184.44699 c 0,0 -12.624321,-18.78252 -19.364158,-15.17005 -6.739838,3.61247 -15.321256,28.56738 -15.321256,28.56738 0,0 12.697183,-19.29386 15.728019,-19.48718 3.030836,-0.19333 21.472667,11.96846 21.472667,11.96846 z"
         id="path2920" />
    </g>
    <g
       id="g2954"
       inkscape:label="crab"
       transform="matrix(0.07890006,0,0,0.14425959,-1.0272122,-15.311773)">
      <path
         style="fill:#800000;stroke-width:0.264583"
         d="m 130.59935,168.51946 c 0,0 12.5545,-11.94009 19.29433,-8.32762 6.73984,3.61247 17.8211,28.4067 17.8211,28.4067 0,0 -18.02376,-21.48673 -21.0546,-21.68005 -3.03083,-0.19333 -18.57611,7.47958 -18.57611,7.47958 z"
         id="path2924"
         sodipodi:nodetypes="cscscc" />
      <path
         style="fill:#800000;stroke-width:0.264583"
         d="m 120.02522,166.26599 c 0,0 12.5545,-11.94009 19.29433,-8.32762 6.73984,3.61247 17.8211,28.4067 17.8211,28.4067 0,0 -18.02376,-21.48673 -21.0546,-21.68005 -3.03083,-0.19333 -18.57611,7.47958 -18.57611,7.47958 z"
         id="path2926"
         sodipodi:nodetypes="cscscc" />
      <path
         style="fill:#800000;stroke-width:0.264583"
         d="m 140.75949,169.09506 c 0,0 12.5545,-11.94009 19.29433,-8.32762 6.73984,3.61247 17.8211,28.4067 17.8211,28.4067 0,0 -18.02376,-21.48673 -21.0546,-21.68005 -3.03083,-0.19333 -18.57611,7.47958 -18.57611,7.47958 z"
         id="path2928"
         sodipodi:nodetypes="cscscc" />
      <ellipse
         style="fill:#d40000;stroke-width:0.264583"
         id="ellipse2930"
         cx="102.87492"
         cy="161.66394"
         rx="56.582577"
         ry="32.927471" />
      <path
         id="path2932"
         style="fill:#d40000;stroke-width:0.228571"
         d="m 156.3066,106.14042 a 12.952058,17.354866 0 0 0 -6.63009,15.14326 12.952058,17.354866 0 0 0 12.95218,17.35449 12.952058,17.354866 0 0 0 12.95167,-17.35449 12.952058,17.354866 0 0 0 -5.96915,-14.61616 l -8.94725,15.72823 z" />
      <path
         id="path2934"
         style="fill:#d40000;stroke-width:0.228571"
         d="m 29.58586,114.36509 a 12.952058,17.354866 0 0 0 -6.63009,15.14327 12.952058,17.354866 0 0 0 12.95218,17.35449 12.952058,17.354866 0 0 0 12.95167,-17.35449 12.952058,17.354866 0 0 0 -5.96915,-14.61617 l -8.94725,15.72824 z" />
      <g
         id="g2940"
         transform="translate(54.08371,80.614701)">
        <circle
           style="fill:#000000;stroke-width:0.264583"
           id="circle2936"
           cx="32.795052"
           cy="50.937527"
           r="7.0839334" />
        <circle
           style="fill:#f9f9f9;stroke-width:0.264583"
           id="circle2938"
           cx="33.364563"
           cy="51.646866"
           r="4.5980244" />
      </g>
      <g
         id="g2946"
         transform="translate(81.2481,79.141011)">
        <circle
           style="fill:#000000;stroke-width:0.264583"
           id="circle2942"
           cx="32.795052"
           cy="50.937527"
           r="7.0839334" />
        <circle
           style="fill:#f9f9f9;stroke-width:0.264583"
           id="circle2944"
           cx="33.364563"
           cy="51.646866"
           r="4.5980244" />
      </g>
      <path
         style="fill:#800000;stroke-width:0.264583"
         d="m 49.214914,167.68694 c 0,0 -10.37887,-19.18943 -17.531418,-15.8227 -7.152549,3.36673 -18.66434,27.96621 -18.66434,27.96621 0,0 14.950128,-18.80481 17.997469,-18.89061 3.047343,-0.0858 20.013774,12.70232 20.013774,12.70232 z"
         id="path2948"
         inkscape:transform-center-x="2.4524911"
         inkscape:transform-center-y="-0.5913969" />
      <path
         style="fill:#800000;stroke-width:0.264583"
         d="m 60.666431,176.18547 c 0,0 -12.31314,-18.84422 -19.112452,-15.26524 -6.799313,3.57898 -15.793136,28.49041 -15.793136,28.49041 0,0 13.015786,-19.23025 16.049695,-19.40857 3.03391,-0.17833 21.273829,12.07421 21.273829,12.07421 z"
         id="path2950"
         inkscape:transform-center-x="2.1903649"
         inkscape:transform-center-y="-0.25571968" />
      <path
         style="fill:#800000;stroke-width:0.264583"
         d="m 73.639079,184.49444 c 0,0 -8.762739,-19.42905 -16.189435,-16.24483 -7.426697,3.18422 -20.984264,27.46987 -20.984264,27.46987 0,0 16.507558,-18.41101 19.558886,-18.42046 3.051331,-0.009 18.930223,13.18983 18.930223,13.18983 z"
         id="path2952"
         inkscape:transform-center-x="2.6766742"
         inkscape:transform-center-y="-1.2875421" />
    </g>
    <g
       id="g2986"
       inkscape:label="crab"
       transform="matrix(0.07890006,0,0,0.14425959,12.201955,-15.311773)">
      <path
         style="fill:#800000;stroke-width:0.264583"
         d="m 130.59935,168.51946 c 0,0 12.5545,-11.94009 19.29433,-8.32762 6.73984,3.61247 17.8211,28.4067 17.8211,28.4067 0,0 -18.02376,-21.48673 -21.0546,-21.68005 -3.03083,-0.19333 -18.57611,7.47958 -18.57611,7.47958 z"
         id="path2956"
         sodipodi:nodetypes="cscscc" />
      <path
         style="fill:#800000;stroke-width:0.264583"
         d="m 120.02522,166.26599 c 0,0 12.5545,-11.94009 19.29433,-8.32762 6.73984,3.61247 17.8211,28.4067 17.8211,28.4067 0,0 -18.02376,-21.48673 -21.0546,-21.68005 -3.03083,-0.19333 -18.57611,7.47958 -18.57611,7.47958 z"
         id="path2958"
         sodipodi:nodetypes="cscscc" />
      <path
         style="fill:#800000;stroke-width:0.264583"
         d="m 140.75949,170.2666 c 0,0 12.5545,-11.94009 19.29433,-8.32762 6.73984,3.61247 17.8211,28.4067 17.8211,28.4067 0,0 -18.02376,-21.48673 -21.0546,-21.68005 -3.03083,-0.19333 -18.57611,7.47958 -18.57611,7.47958 z"
         id="path2960"
         sodipodi:nodetypes="cscscc" />
      <ellipse
         style="fill:#d40000;stroke-width:0.264583"
         id="ellipse2962"
         cx="102.87492"
         cy="161.66394"
         rx="56.582577"
         ry="32.927471" />
      <path
         id="path2964"
         style="fill:#d40000;stroke-width:0.228571"
         d="m 156.3066,106.14042 a 12.952058,17.354866 0 0 0 -6.63009,15.14326 12.952058,17.354866 0 0 0 12.95218,17.35449 12.952058,17.354866 0 0 0 12.95167,-17.35449 12.952058,17.354866 0 0 0 -5.96915,-14.61616 l -8.94725,15.72823 z" />
      <path
         id="path2966"
         style="fill:#d40000;stroke-width:0.228571"
         d="m 29.58586,114.36509 a 12.952058,17.354866 0 0 0 -6.63009,15.14327 12.952058,17.354866 0 0 0 12.95218,17.35449 12.952058,17.354866 0 0 0 12.95167,-17.35449 12.952058,17.354866 0 0 0 -5.96915,-14.61617 l -8.94725,15.72824 z" />
      <g
         id="g2972"
         transform="translate(54.08371,80.614701)">
        <circle
           style="fill:#000000;stroke-width:0.264583"
           id="circle2968"
           cx="32.795052"
           cy="50.937527"
           r="7.0839334" />
        <circle
           style="fill:#f9f9f9;stroke-width:0.264583"
           id="circle2970"
           cx="33.364563"
           cy="51.646866"
           r="4.5980244" />
      </g>
      <g
         id="g2978"
         transform="translate(81.2481,79.141011)">
        <circle
           style="fill:#000000;stroke-width:0.264583"
           id="circle2974"
           cx="32.795052"
           cy="50.937527"
           r="7.0839334" />
        <circle
           style="fill:#f9f9f9;stroke-width:0.264583"
           id="circle2976"
           cx="33.364563"
           cy="51.646866"
           r="4.5980244" />
      </g>
      <path
         style="fill:#800000;stroke-width:0.264583"
         d="m 49.207337,167.61177 c 0,0 -13.269625,-18.64899 -19.883719,-14.96765 -6.614095,3.68134 -14.33364,28.72031 -14.33364,28.72031 0,0 12.029748,-19.42138 15.05338,-19.64592 3.023634,-0.22454 21.881476,11.74489 21.881476,11.74489 z"
         id="path2980"
         inkscape:transform-center-x="2.2264222"
         inkscape:transform-center-y="-0.26984449" />
      <path
         style="fill:#800000;stroke-width:0.264583"
         d="m 60.603365,176.29197 c 0,0 -9.397963,-19.34005 -16.71913,-16.08354 -7.321168,3.25651 -20.080788,27.67114 -20.080788,27.67114 0,0 15.901633,-18.56985 18.952162,-18.60922 3.050531,-0.0394 19.359374,13.00217 19.359374,13.00217 z"
         id="path2982"
         inkscape:transform-center-x="2.421288"
         inkscape:transform-center-y="-0.567355" />
      <path
         style="fill:#800000;stroke-width:0.264583"
         d="m 73.418291,184.46288 c 0,0 -11.133743,-19.06243 -18.15176,-15.61205 -7.018018,3.45038 -17.556334,28.18002 -17.556334,28.18002 0,0 14.204532,-18.97691 17.247778,-19.09866 3.043305,-0.1213 20.510395,12.46309 20.510395,12.46309 z"
         id="path2984"
         inkscape:transform-center-x="2.5379128"
         inkscape:transform-center-y="-1.0210132" />
    </g>
  </g>
</svg>
